<mxfile host="www.draw.io" modified="2019-10-22T04:42:59.982Z" agent="Mozilla/5.0 (Macintosh; Intel Mac OS X 10_14_6) AppleWebKit/537.36 (KHTML, like Gecko) Chrome/78.0.3904.50 Safari/537.36 Edg/78.0.276.17" etag="YALkrRJPB6-VSynyOwnV" version="12.1.3" type="github" pages="1">
  <diagram id="o-4R_1EUZyla-zJ7JMHq" name="第 1 页">
    <mxGraphModel dx="1331" dy="764" grid="1" gridSize="10" guides="1" tooltips="1" connect="1" arrows="1" fold="1" page="1" pageScale="1" pageWidth="3300" pageHeight="4681" math="0" shadow="0">
      <root>
        <mxCell id="0"/>
        <mxCell id="1" parent="0"/>
        <mxCell id="Yzbirrzvl_FB1wXZXd8P-12" value="viewModel" style="html=1;" parent="1" vertex="1">
          <mxGeometry x="1785" y="2045" width="180" height="90" as="geometry"/>
        </mxCell>
        <mxCell id="Yzbirrzvl_FB1wXZXd8P-13" value="" style="shape=component;jettyWidth=8;jettyHeight=4;" parent="Yzbirrzvl_FB1wXZXd8P-12" vertex="1">
          <mxGeometry x="1" width="20" height="20" relative="1" as="geometry">
            <mxPoint x="-27" y="7" as="offset"/>
          </mxGeometry>
        </mxCell>
        <mxCell id="Yzbirrzvl_FB1wXZXd8P-17" value="创建原子/方法页面" style="html=1;" parent="1" vertex="1">
          <mxGeometry x="620" y="1585" width="180" height="90" as="geometry"/>
        </mxCell>
        <mxCell id="Yzbirrzvl_FB1wXZXd8P-18" value="" style="shape=component;jettyWidth=8;jettyHeight=4;" parent="Yzbirrzvl_FB1wXZXd8P-17" vertex="1">
          <mxGeometry x="1" width="20" height="20" relative="1" as="geometry">
            <mxPoint x="-27" y="7" as="offset"/>
          </mxGeometry>
        </mxCell>
        <mxCell id="Yzbirrzvl_FB1wXZXd8P-19" value="属性编辑页面&lt;br&gt;编辑器" style="html=1;" parent="1" vertex="1">
          <mxGeometry x="755" y="1400" width="180" height="90" as="geometry"/>
        </mxCell>
        <mxCell id="Yzbirrzvl_FB1wXZXd8P-20" value="" style="shape=component;jettyWidth=8;jettyHeight=4;" parent="Yzbirrzvl_FB1wXZXd8P-19" vertex="1">
          <mxGeometry x="1" width="20" height="20" relative="1" as="geometry">
            <mxPoint x="-27" y="7" as="offset"/>
          </mxGeometry>
        </mxCell>
        <mxCell id="Yzbirrzvl_FB1wXZXd8P-21" value="" style="html=1;" parent="1" vertex="1">
          <mxGeometry x="1120" y="1550" width="290" height="160" as="geometry"/>
        </mxCell>
        <mxCell id="Yzbirrzvl_FB1wXZXd8P-22" value="" style="shape=component;jettyWidth=8;jettyHeight=4;" parent="Yzbirrzvl_FB1wXZXd8P-21" vertex="1">
          <mxGeometry x="1" width="20" height="20" relative="1" as="geometry">
            <mxPoint x="-27" y="7" as="offset"/>
          </mxGeometry>
        </mxCell>
        <mxCell id="Yzbirrzvl_FB1wXZXd8P-23" value="结构制作&lt;br&gt;编辑器" style="html=1;" parent="Yzbirrzvl_FB1wXZXd8P-21" vertex="1">
          <mxGeometry x="20" y="80" width="110" height="55" as="geometry"/>
        </mxCell>
        <mxCell id="Yzbirrzvl_FB1wXZXd8P-24" value="" style="shape=component;jettyWidth=8;jettyHeight=4;" parent="Yzbirrzvl_FB1wXZXd8P-23" vertex="1">
          <mxGeometry x="1" width="20" height="20" relative="1" as="geometry">
            <mxPoint x="-27" y="7" as="offset"/>
          </mxGeometry>
        </mxCell>
        <mxCell id="Yzbirrzvl_FB1wXZXd8P-25" value="结构制作&lt;br&gt;GUI制作" style="html=1;" parent="Yzbirrzvl_FB1wXZXd8P-21" vertex="1">
          <mxGeometry x="160" y="52.5" width="110" height="55" as="geometry"/>
        </mxCell>
        <mxCell id="Yzbirrzvl_FB1wXZXd8P-26" value="" style="shape=component;jettyWidth=8;jettyHeight=4;" parent="Yzbirrzvl_FB1wXZXd8P-25" vertex="1">
          <mxGeometry x="1" width="20" height="20" relative="1" as="geometry">
            <mxPoint x="-27" y="7" as="offset"/>
          </mxGeometry>
        </mxCell>
        <mxCell id="Yzbirrzvl_FB1wXZXd8P-27" value="结构制作" style="text;html=1;strokeColor=none;fillColor=none;align=center;verticalAlign=middle;whiteSpace=wrap;rounded=0;" parent="Yzbirrzvl_FB1wXZXd8P-21" vertex="1">
          <mxGeometry x="112.5" width="65" height="20" as="geometry"/>
        </mxCell>
        <mxCell id="Yzbirrzvl_FB1wXZXd8P-285" value="结构制作&lt;br&gt;自动生成交互" style="html=1;" parent="Yzbirrzvl_FB1wXZXd8P-21" vertex="1">
          <mxGeometry x="20" y="20" width="110" height="55" as="geometry"/>
        </mxCell>
        <mxCell id="Yzbirrzvl_FB1wXZXd8P-286" value="" style="shape=component;jettyWidth=8;jettyHeight=4;" parent="Yzbirrzvl_FB1wXZXd8P-285" vertex="1">
          <mxGeometry x="1" width="20" height="20" relative="1" as="geometry">
            <mxPoint x="-27" y="7" as="offset"/>
          </mxGeometry>
        </mxCell>
        <mxCell id="Yzbirrzvl_FB1wXZXd8P-28" value="" style="html=1;" parent="1" vertex="1">
          <mxGeometry x="1460" y="1550" width="290" height="160" as="geometry"/>
        </mxCell>
        <mxCell id="Yzbirrzvl_FB1wXZXd8P-29" value="" style="shape=component;jettyWidth=8;jettyHeight=4;" parent="Yzbirrzvl_FB1wXZXd8P-28" vertex="1">
          <mxGeometry x="1" width="20" height="20" relative="1" as="geometry">
            <mxPoint x="-27" y="7" as="offset"/>
          </mxGeometry>
        </mxCell>
        <mxCell id="Yzbirrzvl_FB1wXZXd8P-30" value="渲染制作&lt;br&gt;编辑器" style="html=1;" parent="Yzbirrzvl_FB1wXZXd8P-28" vertex="1">
          <mxGeometry x="20" y="80" width="110" height="55" as="geometry"/>
        </mxCell>
        <mxCell id="Yzbirrzvl_FB1wXZXd8P-31" value="" style="shape=component;jettyWidth=8;jettyHeight=4;" parent="Yzbirrzvl_FB1wXZXd8P-30" vertex="1">
          <mxGeometry x="1" width="20" height="20" relative="1" as="geometry">
            <mxPoint x="-27" y="7" as="offset"/>
          </mxGeometry>
        </mxCell>
        <mxCell id="Yzbirrzvl_FB1wXZXd8P-32" value="渲染制作&lt;br&gt;GUI制作" style="html=1;" parent="Yzbirrzvl_FB1wXZXd8P-28" vertex="1">
          <mxGeometry x="160" y="52.5" width="110" height="55" as="geometry"/>
        </mxCell>
        <mxCell id="Yzbirrzvl_FB1wXZXd8P-33" value="" style="shape=component;jettyWidth=8;jettyHeight=4;" parent="Yzbirrzvl_FB1wXZXd8P-32" vertex="1">
          <mxGeometry x="1" width="20" height="20" relative="1" as="geometry">
            <mxPoint x="-27" y="7" as="offset"/>
          </mxGeometry>
        </mxCell>
        <mxCell id="Yzbirrzvl_FB1wXZXd8P-34" value="渲染制作" style="text;html=1;strokeColor=none;fillColor=none;align=center;verticalAlign=middle;whiteSpace=wrap;rounded=0;" parent="Yzbirrzvl_FB1wXZXd8P-28" vertex="1">
          <mxGeometry x="112.5" width="65" height="20" as="geometry"/>
        </mxCell>
        <mxCell id="Yzbirrzvl_FB1wXZXd8P-287" value="渲染制作&lt;br&gt;自动生成交互" style="html=1;" parent="Yzbirrzvl_FB1wXZXd8P-28" vertex="1">
          <mxGeometry x="20" y="20" width="110" height="55" as="geometry"/>
        </mxCell>
        <mxCell id="Yzbirrzvl_FB1wXZXd8P-288" value="" style="shape=component;jettyWidth=8;jettyHeight=4;" parent="Yzbirrzvl_FB1wXZXd8P-287" vertex="1">
          <mxGeometry x="1" width="20" height="20" relative="1" as="geometry">
            <mxPoint x="-27" y="7" as="offset"/>
          </mxGeometry>
        </mxCell>
        <mxCell id="Yzbirrzvl_FB1wXZXd8P-35" value="" style="html=1;" parent="1" vertex="1">
          <mxGeometry x="1800" y="1550" width="290" height="160" as="geometry"/>
        </mxCell>
        <mxCell id="Yzbirrzvl_FB1wXZXd8P-36" value="" style="shape=component;jettyWidth=8;jettyHeight=4;" parent="Yzbirrzvl_FB1wXZXd8P-35" vertex="1">
          <mxGeometry x="1" width="20" height="20" relative="1" as="geometry">
            <mxPoint x="-27" y="7" as="offset"/>
          </mxGeometry>
        </mxCell>
        <mxCell id="Yzbirrzvl_FB1wXZXd8P-37" value="交互制作&lt;br&gt;编辑器" style="html=1;" parent="Yzbirrzvl_FB1wXZXd8P-35" vertex="1">
          <mxGeometry x="20" y="80" width="110" height="55" as="geometry"/>
        </mxCell>
        <mxCell id="Yzbirrzvl_FB1wXZXd8P-38" value="" style="shape=component;jettyWidth=8;jettyHeight=4;" parent="Yzbirrzvl_FB1wXZXd8P-37" vertex="1">
          <mxGeometry x="1" width="20" height="20" relative="1" as="geometry">
            <mxPoint x="-27" y="7" as="offset"/>
          </mxGeometry>
        </mxCell>
        <mxCell id="Yzbirrzvl_FB1wXZXd8P-39" value="交互制作&lt;br&gt;GUI制作" style="html=1;" parent="Yzbirrzvl_FB1wXZXd8P-35" vertex="1">
          <mxGeometry x="160" y="52.5" width="110" height="55" as="geometry"/>
        </mxCell>
        <mxCell id="Yzbirrzvl_FB1wXZXd8P-40" value="" style="shape=component;jettyWidth=8;jettyHeight=4;" parent="Yzbirrzvl_FB1wXZXd8P-39" vertex="1">
          <mxGeometry x="1" width="20" height="20" relative="1" as="geometry">
            <mxPoint x="-27" y="7" as="offset"/>
          </mxGeometry>
        </mxCell>
        <mxCell id="Yzbirrzvl_FB1wXZXd8P-41" value="交互制作" style="text;html=1;strokeColor=none;fillColor=none;align=center;verticalAlign=middle;whiteSpace=wrap;rounded=0;" parent="Yzbirrzvl_FB1wXZXd8P-35" vertex="1">
          <mxGeometry x="112.5" width="65" height="20" as="geometry"/>
        </mxCell>
        <mxCell id="Yzbirrzvl_FB1wXZXd8P-289" value="交互制作&lt;br&gt;编辑器" style="html=1;" parent="Yzbirrzvl_FB1wXZXd8P-35" vertex="1">
          <mxGeometry x="20" y="20" width="110" height="55" as="geometry"/>
        </mxCell>
        <mxCell id="Yzbirrzvl_FB1wXZXd8P-290" value="" style="shape=component;jettyWidth=8;jettyHeight=4;" parent="Yzbirrzvl_FB1wXZXd8P-289" vertex="1">
          <mxGeometry x="1" width="20" height="20" relative="1" as="geometry">
            <mxPoint x="-27" y="7" as="offset"/>
          </mxGeometry>
        </mxCell>
        <mxCell id="Yzbirrzvl_FB1wXZXd8P-43" value="源码依赖&lt;br&gt;编辑器" style="html=1;" parent="1" vertex="1">
          <mxGeometry x="880" y="1585" width="180" height="90" as="geometry"/>
        </mxCell>
        <mxCell id="Yzbirrzvl_FB1wXZXd8P-44" value="" style="shape=component;jettyWidth=8;jettyHeight=4;" parent="Yzbirrzvl_FB1wXZXd8P-43" vertex="1">
          <mxGeometry x="1" width="20" height="20" relative="1" as="geometry">
            <mxPoint x="-27" y="7" as="offset"/>
          </mxGeometry>
        </mxCell>
        <mxCell id="Yzbirrzvl_FB1wXZXd8P-45" value="" style="rounded=0;orthogonalLoop=1;jettySize=auto;html=1;endArrow=none;endFill=0;exitX=0.5;exitY=0;exitDx=0;exitDy=0;" parent="1" source="Yzbirrzvl_FB1wXZXd8P-12" target="Yzbirrzvl_FB1wXZXd8P-47" edge="1">
          <mxGeometry relative="1" as="geometry">
            <mxPoint x="570" y="1840" as="sourcePoint"/>
          </mxGeometry>
        </mxCell>
        <mxCell id="Yzbirrzvl_FB1wXZXd8P-46" value="" style="rounded=0;orthogonalLoop=1;jettySize=auto;html=1;endArrow=halfCircle;endFill=0;entryX=0.5;entryY=0.5;entryDx=0;entryDy=0;endSize=6;strokeWidth=1;exitX=0.5;exitY=1;exitDx=0;exitDy=0;" parent="1" source="Yzbirrzvl_FB1wXZXd8P-17" target="Yzbirrzvl_FB1wXZXd8P-47" edge="1">
          <mxGeometry relative="1" as="geometry">
            <mxPoint x="610" y="1840" as="sourcePoint"/>
          </mxGeometry>
        </mxCell>
        <mxCell id="Yzbirrzvl_FB1wXZXd8P-47" value="" style="ellipse;whiteSpace=wrap;html=1;fontFamily=Helvetica;fontSize=12;fontColor=#000000;align=center;strokeColor=#000000;fillColor=#ffffff;points=[];aspect=fixed;resizable=0;" parent="1" vertex="1">
          <mxGeometry x="705" y="1834" width="10" height="10" as="geometry"/>
        </mxCell>
        <mxCell id="Yzbirrzvl_FB1wXZXd8P-48" value="" style="rounded=0;orthogonalLoop=1;jettySize=auto;html=1;endArrow=none;endFill=0;exitX=0.5;exitY=0;exitDx=0;exitDy=0;" parent="1" source="Yzbirrzvl_FB1wXZXd8P-12" target="Yzbirrzvl_FB1wXZXd8P-50" edge="1">
          <mxGeometry relative="1" as="geometry">
            <mxPoint x="830" y="1845" as="sourcePoint"/>
          </mxGeometry>
        </mxCell>
        <mxCell id="Yzbirrzvl_FB1wXZXd8P-49" value="" style="rounded=0;orthogonalLoop=1;jettySize=auto;html=1;endArrow=halfCircle;endFill=0;entryX=0.5;entryY=0.5;entryDx=0;entryDy=0;endSize=6;strokeWidth=1;exitX=0.5;exitY=1;exitDx=0;exitDy=0;" parent="1" source="Yzbirrzvl_FB1wXZXd8P-19" target="Yzbirrzvl_FB1wXZXd8P-50" edge="1">
          <mxGeometry relative="1" as="geometry">
            <mxPoint x="870" y="1845" as="sourcePoint"/>
          </mxGeometry>
        </mxCell>
        <mxCell id="Yzbirrzvl_FB1wXZXd8P-50" value="" style="ellipse;whiteSpace=wrap;html=1;fontFamily=Helvetica;fontSize=12;fontColor=#000000;align=center;strokeColor=#000000;fillColor=#ffffff;points=[];aspect=fixed;resizable=0;" parent="1" vertex="1">
          <mxGeometry x="840" y="1834" width="10" height="10" as="geometry"/>
        </mxCell>
        <mxCell id="Yzbirrzvl_FB1wXZXd8P-51" value="" style="rounded=0;orthogonalLoop=1;jettySize=auto;html=1;endArrow=none;endFill=0;exitX=0.5;exitY=0;exitDx=0;exitDy=0;" parent="1" source="Yzbirrzvl_FB1wXZXd8P-12" target="Yzbirrzvl_FB1wXZXd8P-53" edge="1">
          <mxGeometry relative="1" as="geometry">
            <mxPoint x="1110" y="1840" as="sourcePoint"/>
          </mxGeometry>
        </mxCell>
        <mxCell id="Yzbirrzvl_FB1wXZXd8P-52" value="" style="rounded=0;orthogonalLoop=1;jettySize=auto;html=1;endArrow=halfCircle;endFill=0;entryX=0.5;entryY=0.5;entryDx=0;entryDy=0;endSize=6;strokeWidth=1;exitX=0.5;exitY=1;exitDx=0;exitDy=0;" parent="1" source="Yzbirrzvl_FB1wXZXd8P-43" target="Yzbirrzvl_FB1wXZXd8P-53" edge="1">
          <mxGeometry relative="1" as="geometry">
            <mxPoint x="1150" y="1840" as="sourcePoint"/>
          </mxGeometry>
        </mxCell>
        <mxCell id="Yzbirrzvl_FB1wXZXd8P-53" value="" style="ellipse;whiteSpace=wrap;html=1;fontFamily=Helvetica;fontSize=12;fontColor=#000000;align=center;strokeColor=#000000;fillColor=#ffffff;points=[];aspect=fixed;resizable=0;" parent="1" vertex="1">
          <mxGeometry x="965" y="1835" width="10" height="10" as="geometry"/>
        </mxCell>
        <mxCell id="Yzbirrzvl_FB1wXZXd8P-54" value="" style="rounded=0;orthogonalLoop=1;jettySize=auto;html=1;endArrow=none;endFill=0;exitX=0.5;exitY=0;exitDx=0;exitDy=0;" parent="1" source="Yzbirrzvl_FB1wXZXd8P-12" target="Yzbirrzvl_FB1wXZXd8P-56" edge="1">
          <mxGeometry relative="1" as="geometry">
            <mxPoint x="1365" y="1839" as="sourcePoint"/>
          </mxGeometry>
        </mxCell>
        <mxCell id="Yzbirrzvl_FB1wXZXd8P-55" value="" style="rounded=0;orthogonalLoop=1;jettySize=auto;html=1;endArrow=halfCircle;endFill=0;entryX=0.5;entryY=0.5;entryDx=0;entryDy=0;endSize=6;strokeWidth=1;" parent="1" source="Yzbirrzvl_FB1wXZXd8P-23" target="Yzbirrzvl_FB1wXZXd8P-56" edge="1">
          <mxGeometry relative="1" as="geometry">
            <mxPoint x="1405" y="1839" as="sourcePoint"/>
          </mxGeometry>
        </mxCell>
        <mxCell id="Yzbirrzvl_FB1wXZXd8P-56" value="" style="ellipse;whiteSpace=wrap;html=1;fontFamily=Helvetica;fontSize=12;fontColor=#000000;align=center;strokeColor=#000000;fillColor=#ffffff;points=[];aspect=fixed;resizable=0;" parent="1" vertex="1">
          <mxGeometry x="1190" y="1840" width="10" height="10" as="geometry"/>
        </mxCell>
        <mxCell id="Yzbirrzvl_FB1wXZXd8P-57" value="" style="rounded=0;orthogonalLoop=1;jettySize=auto;html=1;endArrow=none;endFill=0;exitX=0.5;exitY=0;exitDx=0;exitDy=0;" parent="1" source="Yzbirrzvl_FB1wXZXd8P-12" target="Yzbirrzvl_FB1wXZXd8P-59" edge="1">
          <mxGeometry relative="1" as="geometry">
            <mxPoint x="1745" y="1835" as="sourcePoint"/>
          </mxGeometry>
        </mxCell>
        <mxCell id="Yzbirrzvl_FB1wXZXd8P-58" value="" style="rounded=0;orthogonalLoop=1;jettySize=auto;html=1;endArrow=halfCircle;endFill=0;entryX=0.5;entryY=0.5;entryDx=0;entryDy=0;endSize=6;strokeWidth=1;exitX=0.5;exitY=1;exitDx=0;exitDy=0;" parent="1" source="Yzbirrzvl_FB1wXZXd8P-30" target="Yzbirrzvl_FB1wXZXd8P-59" edge="1">
          <mxGeometry relative="1" as="geometry">
            <mxPoint x="1785" y="1835" as="sourcePoint"/>
          </mxGeometry>
        </mxCell>
        <mxCell id="Yzbirrzvl_FB1wXZXd8P-59" value="" style="ellipse;whiteSpace=wrap;html=1;fontFamily=Helvetica;fontSize=12;fontColor=#000000;align=center;strokeColor=#000000;fillColor=#ffffff;points=[];aspect=fixed;resizable=0;" parent="1" vertex="1">
          <mxGeometry x="1530" y="1840" width="10" height="10" as="geometry"/>
        </mxCell>
        <mxCell id="Yzbirrzvl_FB1wXZXd8P-60" value="" style="rounded=0;orthogonalLoop=1;jettySize=auto;html=1;endArrow=none;endFill=0;exitX=0.5;exitY=0;exitDx=0;exitDy=0;" parent="1" source="Yzbirrzvl_FB1wXZXd8P-12" target="Yzbirrzvl_FB1wXZXd8P-62" edge="1">
          <mxGeometry relative="1" as="geometry">
            <mxPoint x="2130" y="1835" as="sourcePoint"/>
          </mxGeometry>
        </mxCell>
        <mxCell id="Yzbirrzvl_FB1wXZXd8P-61" value="" style="rounded=0;orthogonalLoop=1;jettySize=auto;html=1;endArrow=halfCircle;endFill=0;entryX=0.5;entryY=0.5;entryDx=0;entryDy=0;endSize=6;strokeWidth=1;exitX=0.5;exitY=1;exitDx=0;exitDy=0;" parent="1" source="Yzbirrzvl_FB1wXZXd8P-37" target="Yzbirrzvl_FB1wXZXd8P-62" edge="1">
          <mxGeometry relative="1" as="geometry">
            <mxPoint x="2170" y="1835" as="sourcePoint"/>
          </mxGeometry>
        </mxCell>
        <mxCell id="Yzbirrzvl_FB1wXZXd8P-62" value="" style="ellipse;whiteSpace=wrap;html=1;fontFamily=Helvetica;fontSize=12;fontColor=#000000;align=center;strokeColor=#000000;fillColor=#ffffff;points=[];aspect=fixed;resizable=0;" parent="1" vertex="1">
          <mxGeometry x="1870" y="1840" width="10" height="10" as="geometry"/>
        </mxCell>
        <mxCell id="Yzbirrzvl_FB1wXZXd8P-63" value="" style="html=1;" parent="1" vertex="1">
          <mxGeometry x="2120" y="1550" width="470" height="235" as="geometry"/>
        </mxCell>
        <mxCell id="Yzbirrzvl_FB1wXZXd8P-64" value="" style="shape=component;jettyWidth=8;jettyHeight=4;" parent="Yzbirrzvl_FB1wXZXd8P-63" vertex="1">
          <mxGeometry x="1" width="20" height="20" relative="1" as="geometry">
            <mxPoint x="-27" y="7" as="offset"/>
          </mxGeometry>
        </mxCell>
        <mxCell id="Yzbirrzvl_FB1wXZXd8P-167" value="交互区数据" style="html=1;" parent="Yzbirrzvl_FB1wXZXd8P-63" vertex="1">
          <mxGeometry x="20" y="20" width="80" height="67" as="geometry"/>
        </mxCell>
        <mxCell id="Yzbirrzvl_FB1wXZXd8P-168" value="" style="shape=component;jettyWidth=8;jettyHeight=4;" parent="Yzbirrzvl_FB1wXZXd8P-167" vertex="1">
          <mxGeometry x="1" width="20" height="20" relative="1" as="geometry">
            <mxPoint x="-27" y="7" as="offset"/>
          </mxGeometry>
        </mxCell>
        <mxCell id="Yzbirrzvl_FB1wXZXd8P-169" value="renderTree数据" style="html=1;" parent="Yzbirrzvl_FB1wXZXd8P-63" vertex="1">
          <mxGeometry x="130" y="20" width="80" height="67" as="geometry"/>
        </mxCell>
        <mxCell id="Yzbirrzvl_FB1wXZXd8P-170" value="" style="shape=component;jettyWidth=8;jettyHeight=4;" parent="Yzbirrzvl_FB1wXZXd8P-169" vertex="1">
          <mxGeometry x="1" width="20" height="20" relative="1" as="geometry">
            <mxPoint x="-27" y="7" as="offset"/>
          </mxGeometry>
        </mxCell>
        <mxCell id="Yzbirrzvl_FB1wXZXd8P-171" value="CodeTree数据" style="html=1;" parent="Yzbirrzvl_FB1wXZXd8P-63" vertex="1">
          <mxGeometry x="235" y="20" width="80" height="67" as="geometry"/>
        </mxCell>
        <mxCell id="Yzbirrzvl_FB1wXZXd8P-172" value="" style="shape=component;jettyWidth=8;jettyHeight=4;" parent="Yzbirrzvl_FB1wXZXd8P-171" vertex="1">
          <mxGeometry x="1" width="20" height="20" relative="1" as="geometry">
            <mxPoint x="-27" y="7" as="offset"/>
          </mxGeometry>
        </mxCell>
        <mxCell id="Yzbirrzvl_FB1wXZXd8P-173" value="依赖信息数据" style="html=1;" parent="Yzbirrzvl_FB1wXZXd8P-63" vertex="1">
          <mxGeometry x="60" y="160" width="80" height="67" as="geometry"/>
        </mxCell>
        <mxCell id="Yzbirrzvl_FB1wXZXd8P-174" value="" style="shape=component;jettyWidth=8;jettyHeight=4;" parent="Yzbirrzvl_FB1wXZXd8P-173" vertex="1">
          <mxGeometry x="1" width="20" height="20" relative="1" as="geometry">
            <mxPoint x="-27" y="7" as="offset"/>
          </mxGeometry>
        </mxCell>
        <mxCell id="Yzbirrzvl_FB1wXZXd8P-175" value="基本信息数据" style="html=1;" parent="Yzbirrzvl_FB1wXZXd8P-63" vertex="1">
          <mxGeometry x="265" y="160" width="80" height="67" as="geometry"/>
        </mxCell>
        <mxCell id="Yzbirrzvl_FB1wXZXd8P-176" value="" style="shape=component;jettyWidth=8;jettyHeight=4;" parent="Yzbirrzvl_FB1wXZXd8P-175" vertex="1">
          <mxGeometry x="1" width="20" height="20" relative="1" as="geometry">
            <mxPoint x="-27" y="7" as="offset"/>
          </mxGeometry>
        </mxCell>
        <mxCell id="Yzbirrzvl_FB1wXZXd8P-177" value="属性数据" style="html=1;" parent="Yzbirrzvl_FB1wXZXd8P-63" vertex="1">
          <mxGeometry x="345" y="20" width="80" height="67" as="geometry"/>
        </mxCell>
        <mxCell id="Yzbirrzvl_FB1wXZXd8P-178" value="" style="shape=component;jettyWidth=8;jettyHeight=4;" parent="Yzbirrzvl_FB1wXZXd8P-177" vertex="1">
          <mxGeometry x="1" width="20" height="20" relative="1" as="geometry">
            <mxPoint x="-27" y="7" as="offset"/>
          </mxGeometry>
        </mxCell>
        <mxCell id="Yzbirrzvl_FB1wXZXd8P-228" value="源码数据" style="html=1;" parent="Yzbirrzvl_FB1wXZXd8P-63" vertex="1">
          <mxGeometry x="163" y="160" width="80" height="67" as="geometry"/>
        </mxCell>
        <mxCell id="Yzbirrzvl_FB1wXZXd8P-229" value="" style="shape=component;jettyWidth=8;jettyHeight=4;" parent="Yzbirrzvl_FB1wXZXd8P-228" vertex="1">
          <mxGeometry x="1" width="20" height="20" relative="1" as="geometry">
            <mxPoint x="-27" y="7" as="offset"/>
          </mxGeometry>
        </mxCell>
        <mxCell id="Yzbirrzvl_FB1wXZXd8P-65" value="" style="rounded=0;orthogonalLoop=1;jettySize=auto;html=1;endArrow=none;endFill=0;exitX=0.5;exitY=1;exitDx=0;exitDy=0;" parent="1" source="Yzbirrzvl_FB1wXZXd8P-175" target="Yzbirrzvl_FB1wXZXd8P-67" edge="1">
          <mxGeometry relative="1" as="geometry">
            <mxPoint x="2293" y="2095" as="sourcePoint"/>
          </mxGeometry>
        </mxCell>
        <mxCell id="Yzbirrzvl_FB1wXZXd8P-66" value="" style="rounded=0;orthogonalLoop=1;jettySize=auto;html=1;endArrow=halfCircle;endFill=0;entryX=0.5;entryY=0.5;entryDx=0;entryDy=0;endSize=6;strokeWidth=1;exitX=1;exitY=0.5;exitDx=0;exitDy=0;" parent="1" source="Yzbirrzvl_FB1wXZXd8P-12" target="Yzbirrzvl_FB1wXZXd8P-67" edge="1">
          <mxGeometry relative="1" as="geometry">
            <mxPoint x="2315" y="2040" as="sourcePoint"/>
          </mxGeometry>
        </mxCell>
        <mxCell id="Yzbirrzvl_FB1wXZXd8P-67" value="" style="ellipse;whiteSpace=wrap;html=1;fontFamily=Helvetica;fontSize=12;fontColor=#000000;align=center;strokeColor=#000000;fillColor=#ffffff;points=[];aspect=fixed;resizable=0;" parent="1" vertex="1">
          <mxGeometry x="2420" y="1937.5" width="10" height="10" as="geometry"/>
        </mxCell>
        <mxCell id="Yzbirrzvl_FB1wXZXd8P-75" value="基本信息编辑页面" style="html=1;" parent="1" vertex="1">
          <mxGeometry x="1000" y="1400" width="180" height="90" as="geometry"/>
        </mxCell>
        <mxCell id="Yzbirrzvl_FB1wXZXd8P-76" value="" style="shape=component;jettyWidth=8;jettyHeight=4;" parent="Yzbirrzvl_FB1wXZXd8P-75" vertex="1">
          <mxGeometry x="1" width="20" height="20" relative="1" as="geometry">
            <mxPoint x="-27" y="7" as="offset"/>
          </mxGeometry>
        </mxCell>
        <mxCell id="Yzbirrzvl_FB1wXZXd8P-77" value="" style="rounded=0;orthogonalLoop=1;jettySize=auto;html=1;endArrow=none;endFill=0;exitX=0.5;exitY=0;exitDx=0;exitDy=0;" parent="1" source="Yzbirrzvl_FB1wXZXd8P-12" target="Yzbirrzvl_FB1wXZXd8P-79" edge="1">
          <mxGeometry relative="1" as="geometry">
            <mxPoint x="1070" y="1839" as="sourcePoint"/>
          </mxGeometry>
        </mxCell>
        <mxCell id="Yzbirrzvl_FB1wXZXd8P-78" value="" style="rounded=0;orthogonalLoop=1;jettySize=auto;html=1;endArrow=halfCircle;endFill=0;entryX=0.5;entryY=0.5;entryDx=0;entryDy=0;endSize=6;strokeWidth=1;exitX=0.5;exitY=1;exitDx=0;exitDy=0;" parent="1" source="Yzbirrzvl_FB1wXZXd8P-75" target="Yzbirrzvl_FB1wXZXd8P-79" edge="1">
          <mxGeometry relative="1" as="geometry">
            <mxPoint x="1110" y="1839" as="sourcePoint"/>
          </mxGeometry>
        </mxCell>
        <mxCell id="Yzbirrzvl_FB1wXZXd8P-79" value="" style="ellipse;whiteSpace=wrap;html=1;fontFamily=Helvetica;fontSize=12;fontColor=#000000;align=center;strokeColor=#000000;fillColor=#ffffff;points=[];aspect=fixed;resizable=0;" parent="1" vertex="1">
          <mxGeometry x="1085" y="1834" width="10" height="10" as="geometry"/>
        </mxCell>
        <mxCell id="Yzbirrzvl_FB1wXZXd8P-80" value="属性自动生成" style="html=1;" parent="1" vertex="1">
          <mxGeometry x="755" y="1170" width="180" height="90" as="geometry"/>
        </mxCell>
        <mxCell id="Yzbirrzvl_FB1wXZXd8P-81" value="" style="shape=component;jettyWidth=8;jettyHeight=4;" parent="Yzbirrzvl_FB1wXZXd8P-80" vertex="1">
          <mxGeometry x="1" width="20" height="20" relative="1" as="geometry">
            <mxPoint x="-27" y="7" as="offset"/>
          </mxGeometry>
        </mxCell>
        <mxCell id="Yzbirrzvl_FB1wXZXd8P-82" value="" style="rounded=0;orthogonalLoop=1;jettySize=auto;html=1;endArrow=none;endFill=0;exitX=0.5;exitY=1;exitDx=0;exitDy=0;" parent="1" source="Yzbirrzvl_FB1wXZXd8P-80" target="Yzbirrzvl_FB1wXZXd8P-84" edge="1">
          <mxGeometry relative="1" as="geometry">
            <mxPoint x="820" y="1325" as="sourcePoint"/>
          </mxGeometry>
        </mxCell>
        <mxCell id="Yzbirrzvl_FB1wXZXd8P-83" value="" style="rounded=0;orthogonalLoop=1;jettySize=auto;html=1;endArrow=halfCircle;endFill=0;entryX=0.5;entryY=0.5;entryDx=0;entryDy=0;endSize=6;strokeWidth=1;exitX=0.5;exitY=0;exitDx=0;exitDy=0;" parent="1" source="Yzbirrzvl_FB1wXZXd8P-19" target="Yzbirrzvl_FB1wXZXd8P-84" edge="1">
          <mxGeometry relative="1" as="geometry">
            <mxPoint x="860" y="1325" as="sourcePoint"/>
          </mxGeometry>
        </mxCell>
        <mxCell id="Yzbirrzvl_FB1wXZXd8P-84" value="" style="ellipse;whiteSpace=wrap;html=1;fontFamily=Helvetica;fontSize=12;fontColor=#000000;align=center;strokeColor=#000000;fillColor=#ffffff;points=[];aspect=fixed;resizable=0;" parent="1" vertex="1">
          <mxGeometry x="840" y="1320" width="10" height="10" as="geometry"/>
        </mxCell>
        <mxCell id="Yzbirrzvl_FB1wXZXd8P-90" value="结构（codeTree）自动生成" style="html=1;" parent="1" vertex="1">
          <mxGeometry x="1105" y="1260" width="180" height="90" as="geometry"/>
        </mxCell>
        <mxCell id="Yzbirrzvl_FB1wXZXd8P-91" value="" style="shape=component;jettyWidth=8;jettyHeight=4;" parent="Yzbirrzvl_FB1wXZXd8P-90" vertex="1">
          <mxGeometry x="1" width="20" height="20" relative="1" as="geometry">
            <mxPoint x="-27" y="7" as="offset"/>
          </mxGeometry>
        </mxCell>
        <mxCell id="Yzbirrzvl_FB1wXZXd8P-92" value="" style="rounded=0;orthogonalLoop=1;jettySize=auto;html=1;endArrow=none;endFill=0;" parent="1" source="Yzbirrzvl_FB1wXZXd8P-90" target="Yzbirrzvl_FB1wXZXd8P-94" edge="1">
          <mxGeometry relative="1" as="geometry">
            <mxPoint x="1175" y="1435" as="sourcePoint"/>
          </mxGeometry>
        </mxCell>
        <mxCell id="Yzbirrzvl_FB1wXZXd8P-93" value="" style="rounded=0;orthogonalLoop=1;jettySize=auto;html=1;endArrow=halfCircle;endFill=0;entryX=0.5;entryY=0.5;entryDx=0;entryDy=0;endSize=6;strokeWidth=1;exitX=0.5;exitY=0;exitDx=0;exitDy=0;" parent="1" source="Yzbirrzvl_FB1wXZXd8P-285" target="Yzbirrzvl_FB1wXZXd8P-94" edge="1">
          <mxGeometry relative="1" as="geometry">
            <mxPoint x="1195" y="1570" as="sourcePoint"/>
          </mxGeometry>
        </mxCell>
        <mxCell id="Yzbirrzvl_FB1wXZXd8P-94" value="" style="ellipse;whiteSpace=wrap;html=1;fontFamily=Helvetica;fontSize=12;fontColor=#000000;align=center;strokeColor=#000000;fillColor=#ffffff;points=[];aspect=fixed;resizable=0;" parent="1" vertex="1">
          <mxGeometry x="1190" y="1430" width="10" height="10" as="geometry"/>
        </mxCell>
        <mxCell id="Yzbirrzvl_FB1wXZXd8P-95" value="渲染（renderTree）自动生成" style="html=1;" parent="1" vertex="1">
          <mxGeometry x="1445" y="1334" width="180" height="90" as="geometry"/>
        </mxCell>
        <mxCell id="Yzbirrzvl_FB1wXZXd8P-96" value="" style="shape=component;jettyWidth=8;jettyHeight=4;" parent="Yzbirrzvl_FB1wXZXd8P-95" vertex="1">
          <mxGeometry x="1" width="20" height="20" relative="1" as="geometry">
            <mxPoint x="-27" y="7" as="offset"/>
          </mxGeometry>
        </mxCell>
        <mxCell id="Yzbirrzvl_FB1wXZXd8P-97" value="" style="rounded=0;orthogonalLoop=1;jettySize=auto;html=1;endArrow=none;endFill=0;exitX=0.5;exitY=1;exitDx=0;exitDy=0;" parent="1" source="Yzbirrzvl_FB1wXZXd8P-95" target="Yzbirrzvl_FB1wXZXd8P-99" edge="1">
          <mxGeometry relative="1" as="geometry">
            <mxPoint x="1511" y="1504" as="sourcePoint"/>
          </mxGeometry>
        </mxCell>
        <mxCell id="Yzbirrzvl_FB1wXZXd8P-98" value="" style="rounded=0;orthogonalLoop=1;jettySize=auto;html=1;endArrow=halfCircle;endFill=0;entryX=0.5;entryY=0.5;entryDx=0;entryDy=0;endSize=6;strokeWidth=1;exitX=0.5;exitY=0;exitDx=0;exitDy=0;" parent="1" source="Yzbirrzvl_FB1wXZXd8P-287" target="Yzbirrzvl_FB1wXZXd8P-99" edge="1">
          <mxGeometry relative="1" as="geometry">
            <mxPoint x="1550" y="1340" as="sourcePoint"/>
          </mxGeometry>
        </mxCell>
        <mxCell id="Yzbirrzvl_FB1wXZXd8P-99" value="" style="ellipse;whiteSpace=wrap;html=1;fontFamily=Helvetica;fontSize=12;fontColor=#000000;align=center;strokeColor=#000000;fillColor=#ffffff;points=[];aspect=fixed;resizable=0;" parent="1" vertex="1">
          <mxGeometry x="1530" y="1499" width="10" height="10" as="geometry"/>
        </mxCell>
        <mxCell id="Yzbirrzvl_FB1wXZXd8P-100" value="交互数据自动生成" style="html=1;" parent="1" vertex="1">
          <mxGeometry x="1785" y="1417" width="180" height="90" as="geometry"/>
        </mxCell>
        <mxCell id="Yzbirrzvl_FB1wXZXd8P-101" value="" style="shape=component;jettyWidth=8;jettyHeight=4;" parent="Yzbirrzvl_FB1wXZXd8P-100" vertex="1">
          <mxGeometry x="1" width="20" height="20" relative="1" as="geometry">
            <mxPoint x="-27" y="7" as="offset"/>
          </mxGeometry>
        </mxCell>
        <mxCell id="Yzbirrzvl_FB1wXZXd8P-102" value="" style="rounded=0;orthogonalLoop=1;jettySize=auto;html=1;endArrow=none;endFill=0;exitX=0.5;exitY=1;exitDx=0;exitDy=0;" parent="1" source="Yzbirrzvl_FB1wXZXd8P-100" target="Yzbirrzvl_FB1wXZXd8P-104" edge="1">
          <mxGeometry relative="1" as="geometry">
            <mxPoint x="1855" y="1586" as="sourcePoint"/>
          </mxGeometry>
        </mxCell>
        <mxCell id="Yzbirrzvl_FB1wXZXd8P-103" value="" style="rounded=0;orthogonalLoop=1;jettySize=auto;html=1;endArrow=halfCircle;endFill=0;entryX=0.5;entryY=0.5;entryDx=0;entryDy=0;endSize=6;strokeWidth=1;exitX=0.5;exitY=0;exitDx=0;exitDy=0;" parent="1" source="Yzbirrzvl_FB1wXZXd8P-289" target="Yzbirrzvl_FB1wXZXd8P-104" edge="1">
          <mxGeometry relative="1" as="geometry">
            <mxPoint x="1895" y="1339" as="sourcePoint"/>
          </mxGeometry>
        </mxCell>
        <mxCell id="Yzbirrzvl_FB1wXZXd8P-104" value="" style="ellipse;whiteSpace=wrap;html=1;fontFamily=Helvetica;fontSize=12;fontColor=#000000;align=center;strokeColor=#000000;fillColor=#ffffff;points=[];aspect=fixed;resizable=0;" parent="1" vertex="1">
          <mxGeometry x="1870" y="1523" width="10" height="10" as="geometry"/>
        </mxCell>
        <mxCell id="Yzbirrzvl_FB1wXZXd8P-105" value="" style="rounded=0;orthogonalLoop=1;jettySize=auto;html=1;endArrow=none;endFill=0;exitX=0.5;exitY=0;exitDx=0;exitDy=0;" parent="1" source="Yzbirrzvl_FB1wXZXd8P-167" target="Yzbirrzvl_FB1wXZXd8P-107" edge="1">
          <mxGeometry relative="1" as="geometry">
            <mxPoint x="2200" y="1462" as="sourcePoint"/>
          </mxGeometry>
        </mxCell>
        <mxCell id="Yzbirrzvl_FB1wXZXd8P-106" value="" style="rounded=0;orthogonalLoop=1;jettySize=auto;html=1;endArrow=halfCircle;endFill=0;entryX=0.5;entryY=0.5;entryDx=0;entryDy=0;endSize=6;strokeWidth=1;exitX=1;exitY=0.5;exitDx=0;exitDy=0;" parent="1" source="Yzbirrzvl_FB1wXZXd8P-100" target="Yzbirrzvl_FB1wXZXd8P-107" edge="1">
          <mxGeometry relative="1" as="geometry">
            <mxPoint x="2240" y="1462" as="sourcePoint"/>
          </mxGeometry>
        </mxCell>
        <mxCell id="Yzbirrzvl_FB1wXZXd8P-107" value="" style="ellipse;whiteSpace=wrap;html=1;fontFamily=Helvetica;fontSize=12;fontColor=#000000;align=center;strokeColor=#000000;fillColor=#ffffff;points=[];aspect=fixed;resizable=0;" parent="1" vertex="1">
          <mxGeometry x="2140" y="1457" width="10" height="10" as="geometry"/>
        </mxCell>
        <mxCell id="Yzbirrzvl_FB1wXZXd8P-108" value="" style="rounded=0;orthogonalLoop=1;jettySize=auto;html=1;endArrow=none;endFill=0;exitX=0.5;exitY=0;exitDx=0;exitDy=0;" parent="1" source="Yzbirrzvl_FB1wXZXd8P-169" target="Yzbirrzvl_FB1wXZXd8P-110" edge="1">
          <mxGeometry relative="1" as="geometry">
            <mxPoint x="2150" y="1379" as="sourcePoint"/>
          </mxGeometry>
        </mxCell>
        <mxCell id="Yzbirrzvl_FB1wXZXd8P-109" value="" style="rounded=0;orthogonalLoop=1;jettySize=auto;html=1;endArrow=halfCircle;endFill=0;entryX=0.5;entryY=0.5;entryDx=0;entryDy=0;endSize=6;strokeWidth=1;exitX=1;exitY=0.5;exitDx=0;exitDy=0;" parent="1" source="Yzbirrzvl_FB1wXZXd8P-95" target="Yzbirrzvl_FB1wXZXd8P-110" edge="1">
          <mxGeometry relative="1" as="geometry">
            <mxPoint x="2190" y="1379" as="sourcePoint"/>
          </mxGeometry>
        </mxCell>
        <mxCell id="Yzbirrzvl_FB1wXZXd8P-110" value="" style="ellipse;whiteSpace=wrap;html=1;fontFamily=Helvetica;fontSize=12;fontColor=#000000;align=center;strokeColor=#000000;fillColor=#ffffff;points=[];aspect=fixed;resizable=0;" parent="1" vertex="1">
          <mxGeometry x="2170" y="1376" width="10" height="10" as="geometry"/>
        </mxCell>
        <mxCell id="Yzbirrzvl_FB1wXZXd8P-111" value="" style="rounded=0;orthogonalLoop=1;jettySize=auto;html=1;endArrow=none;endFill=0;exitX=0.5;exitY=0;exitDx=0;exitDy=0;" parent="1" source="Yzbirrzvl_FB1wXZXd8P-171" target="Yzbirrzvl_FB1wXZXd8P-113" edge="1">
          <mxGeometry relative="1" as="geometry">
            <mxPoint x="2200" y="1295" as="sourcePoint"/>
          </mxGeometry>
        </mxCell>
        <mxCell id="Yzbirrzvl_FB1wXZXd8P-112" value="" style="rounded=0;orthogonalLoop=1;jettySize=auto;html=1;endArrow=halfCircle;endFill=0;entryX=0.5;entryY=0.5;entryDx=0;entryDy=0;endSize=6;strokeWidth=1;exitX=1;exitY=0.5;exitDx=0;exitDy=0;" parent="1" source="Yzbirrzvl_FB1wXZXd8P-90" target="Yzbirrzvl_FB1wXZXd8P-113" edge="1">
          <mxGeometry relative="1" as="geometry">
            <mxPoint x="2240" y="1295" as="sourcePoint"/>
          </mxGeometry>
        </mxCell>
        <mxCell id="Yzbirrzvl_FB1wXZXd8P-113" value="" style="ellipse;whiteSpace=wrap;html=1;fontFamily=Helvetica;fontSize=12;fontColor=#000000;align=center;strokeColor=#000000;fillColor=#ffffff;points=[];aspect=fixed;resizable=0;" parent="1" vertex="1">
          <mxGeometry x="2215" y="1300" width="10" height="10" as="geometry"/>
        </mxCell>
        <mxCell id="Yzbirrzvl_FB1wXZXd8P-114" value="" style="rounded=0;orthogonalLoop=1;jettySize=auto;html=1;endArrow=none;endFill=0;exitX=0.5;exitY=0;exitDx=0;exitDy=0;" parent="1" source="Yzbirrzvl_FB1wXZXd8P-177" target="Yzbirrzvl_FB1wXZXd8P-116" edge="1">
          <mxGeometry relative="1" as="geometry">
            <mxPoint x="2350" y="1245" as="sourcePoint"/>
          </mxGeometry>
        </mxCell>
        <mxCell id="Yzbirrzvl_FB1wXZXd8P-115" value="" style="rounded=0;orthogonalLoop=1;jettySize=auto;html=1;endArrow=halfCircle;endFill=0;entryX=0.5;entryY=0.5;entryDx=0;entryDy=0;endSize=6;strokeWidth=1;exitX=1;exitY=0.5;exitDx=0;exitDy=0;" parent="1" source="Yzbirrzvl_FB1wXZXd8P-80" target="Yzbirrzvl_FB1wXZXd8P-116" edge="1">
          <mxGeometry relative="1" as="geometry">
            <mxPoint x="1000" y="1190" as="sourcePoint"/>
          </mxGeometry>
        </mxCell>
        <mxCell id="Yzbirrzvl_FB1wXZXd8P-116" value="" style="ellipse;whiteSpace=wrap;html=1;fontFamily=Helvetica;fontSize=12;fontColor=#000000;align=center;strokeColor=#000000;fillColor=#ffffff;points=[];aspect=fixed;resizable=0;" parent="1" vertex="1">
          <mxGeometry x="2260" y="1210" width="10" height="10" as="geometry"/>
        </mxCell>
        <mxCell id="Yzbirrzvl_FB1wXZXd8P-117" value="" style="html=1;" parent="1" vertex="1">
          <mxGeometry x="290" y="1550" width="290" height="160" as="geometry"/>
        </mxCell>
        <mxCell id="Yzbirrzvl_FB1wXZXd8P-118" value="" style="shape=component;jettyWidth=8;jettyHeight=4;" parent="Yzbirrzvl_FB1wXZXd8P-117" vertex="1">
          <mxGeometry x="1" width="20" height="20" relative="1" as="geometry">
            <mxPoint x="-27" y="7" as="offset"/>
          </mxGeometry>
        </mxCell>
        <mxCell id="Yzbirrzvl_FB1wXZXd8P-119" value="资源包管理" style="html=1;" parent="Yzbirrzvl_FB1wXZXd8P-117" vertex="1">
          <mxGeometry x="20" y="52.5" width="110" height="55" as="geometry"/>
        </mxCell>
        <mxCell id="Yzbirrzvl_FB1wXZXd8P-120" value="" style="shape=component;jettyWidth=8;jettyHeight=4;" parent="Yzbirrzvl_FB1wXZXd8P-119" vertex="1">
          <mxGeometry x="1" width="20" height="20" relative="1" as="geometry">
            <mxPoint x="-27" y="7" as="offset"/>
          </mxGeometry>
        </mxCell>
        <mxCell id="Yzbirrzvl_FB1wXZXd8P-121" value="Git资源管理&lt;br&gt;编辑器" style="html=1;" parent="Yzbirrzvl_FB1wXZXd8P-117" vertex="1">
          <mxGeometry x="160" y="52.5" width="110" height="55" as="geometry"/>
        </mxCell>
        <mxCell id="Yzbirrzvl_FB1wXZXd8P-122" value="" style="shape=component;jettyWidth=8;jettyHeight=4;" parent="Yzbirrzvl_FB1wXZXd8P-121" vertex="1">
          <mxGeometry x="1" width="20" height="20" relative="1" as="geometry">
            <mxPoint x="-27" y="7" as="offset"/>
          </mxGeometry>
        </mxCell>
        <mxCell id="Yzbirrzvl_FB1wXZXd8P-123" value="包/Git管理" style="text;html=1;strokeColor=none;fillColor=none;align=center;verticalAlign=middle;whiteSpace=wrap;rounded=0;" parent="Yzbirrzvl_FB1wXZXd8P-117" vertex="1">
          <mxGeometry x="112.5" width="65" height="20" as="geometry"/>
        </mxCell>
        <mxCell id="Yzbirrzvl_FB1wXZXd8P-124" value="资源管理" style="html=1;" parent="1" vertex="1">
          <mxGeometry x="275" y="1892.5" width="180" height="90" as="geometry"/>
        </mxCell>
        <mxCell id="Yzbirrzvl_FB1wXZXd8P-125" value="" style="shape=component;jettyWidth=8;jettyHeight=4;" parent="Yzbirrzvl_FB1wXZXd8P-124" vertex="1">
          <mxGeometry x="1" width="20" height="20" relative="1" as="geometry">
            <mxPoint x="-27" y="7" as="offset"/>
          </mxGeometry>
        </mxCell>
        <mxCell id="Yzbirrzvl_FB1wXZXd8P-128" value="" style="rounded=0;orthogonalLoop=1;jettySize=auto;html=1;endArrow=none;endFill=0;exitX=0.5;exitY=0;exitDx=0;exitDy=0;" parent="1" source="Yzbirrzvl_FB1wXZXd8P-124" target="Yzbirrzvl_FB1wXZXd8P-130" edge="1">
          <mxGeometry relative="1" as="geometry">
            <mxPoint x="360" y="1805" as="sourcePoint"/>
          </mxGeometry>
        </mxCell>
        <mxCell id="Yzbirrzvl_FB1wXZXd8P-129" value="" style="rounded=0;orthogonalLoop=1;jettySize=auto;html=1;endArrow=halfCircle;endFill=0;entryX=0.5;entryY=0.5;entryDx=0;entryDy=0;endSize=6;strokeWidth=1;exitX=0.5;exitY=1;exitDx=0;exitDy=0;" parent="1" source="Yzbirrzvl_FB1wXZXd8P-119" target="Yzbirrzvl_FB1wXZXd8P-130" edge="1">
          <mxGeometry relative="1" as="geometry">
            <mxPoint x="400" y="1805" as="sourcePoint"/>
          </mxGeometry>
        </mxCell>
        <mxCell id="Yzbirrzvl_FB1wXZXd8P-130" value="" style="ellipse;whiteSpace=wrap;html=1;fontFamily=Helvetica;fontSize=12;fontColor=#000000;align=center;strokeColor=#000000;fillColor=#ffffff;points=[];aspect=fixed;resizable=0;" parent="1" vertex="1">
          <mxGeometry x="360" y="1800" width="10" height="10" as="geometry"/>
        </mxCell>
        <mxCell id="Yzbirrzvl_FB1wXZXd8P-131" value="" style="rounded=0;orthogonalLoop=1;jettySize=auto;html=1;endArrow=none;endFill=0;exitX=0.5;exitY=0;exitDx=0;exitDy=0;" parent="1" source="Yzbirrzvl_FB1wXZXd8P-134" target="Yzbirrzvl_FB1wXZXd8P-133" edge="1">
          <mxGeometry relative="1" as="geometry">
            <mxPoint x="365" y="2140" as="sourcePoint"/>
          </mxGeometry>
        </mxCell>
        <mxCell id="Yzbirrzvl_FB1wXZXd8P-132" value="" style="rounded=0;orthogonalLoop=1;jettySize=auto;html=1;endArrow=halfCircle;endFill=0;entryX=0.5;entryY=0.5;entryDx=0;entryDy=0;endSize=6;strokeWidth=1;exitX=0.5;exitY=1;exitDx=0;exitDy=0;" parent="1" source="Yzbirrzvl_FB1wXZXd8P-124" target="Yzbirrzvl_FB1wXZXd8P-133" edge="1">
          <mxGeometry relative="1" as="geometry">
            <mxPoint x="385" y="2070" as="sourcePoint"/>
          </mxGeometry>
        </mxCell>
        <mxCell id="Yzbirrzvl_FB1wXZXd8P-133" value="" style="ellipse;whiteSpace=wrap;html=1;fontFamily=Helvetica;fontSize=12;fontColor=#000000;align=center;strokeColor=#000000;fillColor=#ffffff;points=[];aspect=fixed;resizable=0;" parent="1" vertex="1">
          <mxGeometry x="270" y="2190" width="10" height="10" as="geometry"/>
        </mxCell>
        <mxCell id="Yzbirrzvl_FB1wXZXd8P-134" value="git资源管理" style="html=1;" parent="1" vertex="1">
          <mxGeometry x="120" y="2370" width="180" height="90" as="geometry"/>
        </mxCell>
        <mxCell id="Yzbirrzvl_FB1wXZXd8P-135" value="" style="shape=component;jettyWidth=8;jettyHeight=4;" parent="Yzbirrzvl_FB1wXZXd8P-134" vertex="1">
          <mxGeometry x="1" width="20" height="20" relative="1" as="geometry">
            <mxPoint x="-27" y="7" as="offset"/>
          </mxGeometry>
        </mxCell>
        <mxCell id="Yzbirrzvl_FB1wXZXd8P-136" value="composer资源管理" style="html=1;" parent="1" vertex="1">
          <mxGeometry x="560" y="2370" width="180" height="90" as="geometry"/>
        </mxCell>
        <mxCell id="Yzbirrzvl_FB1wXZXd8P-137" value="" style="shape=component;jettyWidth=8;jettyHeight=4;" parent="Yzbirrzvl_FB1wXZXd8P-136" vertex="1">
          <mxGeometry x="1" width="20" height="20" relative="1" as="geometry">
            <mxPoint x="-27" y="7" as="offset"/>
          </mxGeometry>
        </mxCell>
        <mxCell id="Yzbirrzvl_FB1wXZXd8P-138" value="npm资源管理" style="html=1;" parent="1" vertex="1">
          <mxGeometry x="340" y="2370" width="180" height="90" as="geometry"/>
        </mxCell>
        <mxCell id="Yzbirrzvl_FB1wXZXd8P-139" value="" style="shape=component;jettyWidth=8;jettyHeight=4;" parent="Yzbirrzvl_FB1wXZXd8P-138" vertex="1">
          <mxGeometry x="1" width="20" height="20" relative="1" as="geometry">
            <mxPoint x="-27" y="7" as="offset"/>
          </mxGeometry>
        </mxCell>
        <mxCell id="Yzbirrzvl_FB1wXZXd8P-140" value="cocopods资源管理" style="html=1;" parent="1" vertex="1">
          <mxGeometry x="780" y="2370" width="180" height="90" as="geometry"/>
        </mxCell>
        <mxCell id="Yzbirrzvl_FB1wXZXd8P-141" value="" style="shape=component;jettyWidth=8;jettyHeight=4;" parent="Yzbirrzvl_FB1wXZXd8P-140" vertex="1">
          <mxGeometry x="1" width="20" height="20" relative="1" as="geometry">
            <mxPoint x="-27" y="7" as="offset"/>
          </mxGeometry>
        </mxCell>
        <mxCell id="Yzbirrzvl_FB1wXZXd8P-142" value="marven资源管理" style="html=1;" parent="1" vertex="1">
          <mxGeometry x="1000" y="2370" width="180" height="90" as="geometry"/>
        </mxCell>
        <mxCell id="Yzbirrzvl_FB1wXZXd8P-143" value="" style="shape=component;jettyWidth=8;jettyHeight=4;" parent="Yzbirrzvl_FB1wXZXd8P-142" vertex="1">
          <mxGeometry x="1" width="20" height="20" relative="1" as="geometry">
            <mxPoint x="-27" y="7" as="offset"/>
          </mxGeometry>
        </mxCell>
        <mxCell id="Yzbirrzvl_FB1wXZXd8P-144" value="&amp;lt;&amp;lt;database&amp;gt;&amp;gt;&lt;br&gt;依赖信息存储" style="html=1;" parent="1" vertex="1">
          <mxGeometry x="610" y="1982.5" width="180" height="90" as="geometry"/>
        </mxCell>
        <mxCell id="Yzbirrzvl_FB1wXZXd8P-145" value="" style="shape=component;jettyWidth=8;jettyHeight=4;" parent="Yzbirrzvl_FB1wXZXd8P-144" vertex="1">
          <mxGeometry x="1" width="20" height="20" relative="1" as="geometry">
            <mxPoint x="-27" y="7" as="offset"/>
          </mxGeometry>
        </mxCell>
        <mxCell id="Yzbirrzvl_FB1wXZXd8P-148" value="" style="rounded=0;orthogonalLoop=1;jettySize=auto;html=1;endArrow=none;endFill=0;exitX=0.5;exitY=0;exitDx=0;exitDy=0;" parent="1" source="Yzbirrzvl_FB1wXZXd8P-138" target="Yzbirrzvl_FB1wXZXd8P-150" edge="1">
          <mxGeometry relative="1" as="geometry">
            <mxPoint x="360" y="2195" as="sourcePoint"/>
          </mxGeometry>
        </mxCell>
        <mxCell id="Yzbirrzvl_FB1wXZXd8P-149" value="" style="rounded=0;orthogonalLoop=1;jettySize=auto;html=1;endArrow=halfCircle;endFill=0;entryX=0.5;entryY=0.5;entryDx=0;entryDy=0;endSize=6;strokeWidth=1;exitX=0.5;exitY=1;exitDx=0;exitDy=0;" parent="1" source="Yzbirrzvl_FB1wXZXd8P-124" target="Yzbirrzvl_FB1wXZXd8P-150" edge="1">
          <mxGeometry relative="1" as="geometry">
            <mxPoint x="400" y="2195" as="sourcePoint"/>
          </mxGeometry>
        </mxCell>
        <mxCell id="Yzbirrzvl_FB1wXZXd8P-150" value="" style="ellipse;whiteSpace=wrap;html=1;fontFamily=Helvetica;fontSize=12;fontColor=#000000;align=center;strokeColor=#000000;fillColor=#ffffff;points=[];aspect=fixed;resizable=0;" parent="1" vertex="1">
          <mxGeometry x="395" y="2190" width="10" height="10" as="geometry"/>
        </mxCell>
        <mxCell id="Yzbirrzvl_FB1wXZXd8P-151" value="" style="rounded=0;orthogonalLoop=1;jettySize=auto;html=1;endArrow=none;endFill=0;exitX=0.5;exitY=0;exitDx=0;exitDy=0;" parent="1" source="Yzbirrzvl_FB1wXZXd8P-136" target="Yzbirrzvl_FB1wXZXd8P-153" edge="1">
          <mxGeometry relative="1" as="geometry">
            <mxPoint x="448" y="2195" as="sourcePoint"/>
          </mxGeometry>
        </mxCell>
        <mxCell id="Yzbirrzvl_FB1wXZXd8P-152" value="" style="rounded=0;orthogonalLoop=1;jettySize=auto;html=1;endArrow=halfCircle;endFill=0;entryX=0.5;entryY=0.5;entryDx=0;entryDy=0;endSize=6;strokeWidth=1;exitX=0.5;exitY=1;exitDx=0;exitDy=0;" parent="1" source="Yzbirrzvl_FB1wXZXd8P-124" target="Yzbirrzvl_FB1wXZXd8P-153" edge="1">
          <mxGeometry relative="1" as="geometry">
            <mxPoint x="488" y="2195" as="sourcePoint"/>
          </mxGeometry>
        </mxCell>
        <mxCell id="Yzbirrzvl_FB1wXZXd8P-153" value="" style="ellipse;whiteSpace=wrap;html=1;fontFamily=Helvetica;fontSize=12;fontColor=#000000;align=center;strokeColor=#000000;fillColor=#ffffff;points=[];aspect=fixed;resizable=0;" parent="1" vertex="1">
          <mxGeometry x="520" y="2190" width="10" height="10" as="geometry"/>
        </mxCell>
        <mxCell id="Yzbirrzvl_FB1wXZXd8P-154" value="" style="rounded=0;orthogonalLoop=1;jettySize=auto;html=1;endArrow=none;endFill=0;exitX=0.5;exitY=0;exitDx=0;exitDy=0;" parent="1" source="Yzbirrzvl_FB1wXZXd8P-140" target="Yzbirrzvl_FB1wXZXd8P-156" edge="1">
          <mxGeometry relative="1" as="geometry">
            <mxPoint x="620" y="2195" as="sourcePoint"/>
          </mxGeometry>
        </mxCell>
        <mxCell id="Yzbirrzvl_FB1wXZXd8P-155" value="" style="rounded=0;orthogonalLoop=1;jettySize=auto;html=1;endArrow=halfCircle;endFill=0;entryX=0.5;entryY=0.5;entryDx=0;entryDy=0;endSize=6;strokeWidth=1;exitX=0.5;exitY=1;exitDx=0;exitDy=0;" parent="1" source="Yzbirrzvl_FB1wXZXd8P-124" target="Yzbirrzvl_FB1wXZXd8P-156" edge="1">
          <mxGeometry relative="1" as="geometry">
            <mxPoint x="660" y="2195" as="sourcePoint"/>
          </mxGeometry>
        </mxCell>
        <mxCell id="Yzbirrzvl_FB1wXZXd8P-156" value="" style="ellipse;whiteSpace=wrap;html=1;fontFamily=Helvetica;fontSize=12;fontColor=#000000;align=center;strokeColor=#000000;fillColor=#ffffff;points=[];aspect=fixed;resizable=0;" parent="1" vertex="1">
          <mxGeometry x="640" y="2190" width="10" height="10" as="geometry"/>
        </mxCell>
        <mxCell id="Yzbirrzvl_FB1wXZXd8P-157" value="" style="rounded=0;orthogonalLoop=1;jettySize=auto;html=1;endArrow=none;endFill=0;exitX=0.5;exitY=0;exitDx=0;exitDy=0;" parent="1" source="Yzbirrzvl_FB1wXZXd8P-142" target="Yzbirrzvl_FB1wXZXd8P-159" edge="1">
          <mxGeometry relative="1" as="geometry">
            <mxPoint x="740" y="2195" as="sourcePoint"/>
          </mxGeometry>
        </mxCell>
        <mxCell id="Yzbirrzvl_FB1wXZXd8P-158" value="" style="rounded=0;orthogonalLoop=1;jettySize=auto;html=1;endArrow=halfCircle;endFill=0;entryX=0.5;entryY=0.5;entryDx=0;entryDy=0;endSize=6;strokeWidth=1;exitX=0.5;exitY=1;exitDx=0;exitDy=0;" parent="1" source="Yzbirrzvl_FB1wXZXd8P-124" target="Yzbirrzvl_FB1wXZXd8P-159" edge="1">
          <mxGeometry relative="1" as="geometry">
            <mxPoint x="780" y="2195" as="sourcePoint"/>
          </mxGeometry>
        </mxCell>
        <mxCell id="Yzbirrzvl_FB1wXZXd8P-159" value="" style="ellipse;whiteSpace=wrap;html=1;fontFamily=Helvetica;fontSize=12;fontColor=#000000;align=center;strokeColor=#000000;fillColor=#ffffff;points=[];aspect=fixed;resizable=0;" parent="1" vertex="1">
          <mxGeometry x="755" y="2190" width="10" height="10" as="geometry"/>
        </mxCell>
        <mxCell id="Yzbirrzvl_FB1wXZXd8P-160" value="" style="rounded=0;orthogonalLoop=1;jettySize=auto;html=1;endArrow=none;endFill=0;exitX=0;exitY=0.5;exitDx=0;exitDy=0;" parent="1" source="Yzbirrzvl_FB1wXZXd8P-144" target="Yzbirrzvl_FB1wXZXd8P-162" edge="1">
          <mxGeometry relative="1" as="geometry">
            <mxPoint x="515" y="1955" as="sourcePoint"/>
          </mxGeometry>
        </mxCell>
        <mxCell id="Yzbirrzvl_FB1wXZXd8P-161" value="" style="rounded=0;orthogonalLoop=1;jettySize=auto;html=1;endArrow=halfCircle;endFill=0;entryX=0.5;entryY=0.5;entryDx=0;entryDy=0;endSize=6;strokeWidth=1;exitX=1;exitY=0.5;exitDx=0;exitDy=0;" parent="1" source="Yzbirrzvl_FB1wXZXd8P-124" target="Yzbirrzvl_FB1wXZXd8P-162" edge="1">
          <mxGeometry relative="1" as="geometry">
            <mxPoint x="555" y="1955" as="sourcePoint"/>
          </mxGeometry>
        </mxCell>
        <mxCell id="Yzbirrzvl_FB1wXZXd8P-162" value="" style="ellipse;whiteSpace=wrap;html=1;fontFamily=Helvetica;fontSize=12;fontColor=#000000;align=center;strokeColor=#000000;fillColor=#ffffff;points=[];aspect=fixed;resizable=0;" parent="1" vertex="1">
          <mxGeometry x="530" y="1932.5" width="10" height="10" as="geometry"/>
        </mxCell>
        <mxCell id="Yzbirrzvl_FB1wXZXd8P-163" value="数据处理" style="html=1;" parent="1" vertex="1">
          <mxGeometry x="2700" y="1630" width="180" height="90" as="geometry"/>
        </mxCell>
        <mxCell id="Yzbirrzvl_FB1wXZXd8P-164" value="" style="shape=component;jettyWidth=8;jettyHeight=4;" parent="Yzbirrzvl_FB1wXZXd8P-163" vertex="1">
          <mxGeometry x="1" width="20" height="20" relative="1" as="geometry">
            <mxPoint x="-27" y="7" as="offset"/>
          </mxGeometry>
        </mxCell>
        <mxCell id="Yzbirrzvl_FB1wXZXd8P-165" value="数据处理交互" style="html=1;" parent="1" vertex="1">
          <mxGeometry x="2700" y="1355" width="180" height="90" as="geometry"/>
        </mxCell>
        <mxCell id="Yzbirrzvl_FB1wXZXd8P-166" value="" style="shape=component;jettyWidth=8;jettyHeight=4;" parent="Yzbirrzvl_FB1wXZXd8P-165" vertex="1">
          <mxGeometry x="1" width="20" height="20" relative="1" as="geometry">
            <mxPoint x="-27" y="7" as="offset"/>
          </mxGeometry>
        </mxCell>
        <mxCell id="Yzbirrzvl_FB1wXZXd8P-181" value="" style="rounded=0;orthogonalLoop=1;jettySize=auto;html=1;endArrow=none;endFill=0;exitX=0.75;exitY=1;exitDx=0;exitDy=0;" parent="1" source="Yzbirrzvl_FB1wXZXd8P-177" target="Yzbirrzvl_FB1wXZXd8P-183" edge="1">
          <mxGeometry relative="1" as="geometry">
            <mxPoint x="2500" y="1850" as="sourcePoint"/>
          </mxGeometry>
        </mxCell>
        <mxCell id="Yzbirrzvl_FB1wXZXd8P-182" value="" style="rounded=0;orthogonalLoop=1;jettySize=auto;html=1;endArrow=halfCircle;endFill=0;entryX=0.5;entryY=0.5;entryDx=0;entryDy=0;endSize=6;strokeWidth=1;exitX=1;exitY=0.5;exitDx=0;exitDy=0;" parent="1" source="Yzbirrzvl_FB1wXZXd8P-12" target="Yzbirrzvl_FB1wXZXd8P-183" edge="1">
          <mxGeometry relative="1" as="geometry">
            <mxPoint x="2355" y="2115" as="sourcePoint"/>
          </mxGeometry>
        </mxCell>
        <mxCell id="Yzbirrzvl_FB1wXZXd8P-183" value="" style="ellipse;whiteSpace=wrap;html=1;fontFamily=Helvetica;fontSize=12;fontColor=#000000;align=center;strokeColor=#000000;fillColor=#ffffff;points=[];aspect=fixed;resizable=0;" parent="1" vertex="1">
          <mxGeometry x="2520" y="1942.5" width="10" height="10" as="geometry"/>
        </mxCell>
        <mxCell id="Yzbirrzvl_FB1wXZXd8P-184" value="" style="rounded=0;orthogonalLoop=1;jettySize=auto;html=1;endArrow=none;endFill=0;exitX=0.5;exitY=1;exitDx=0;exitDy=0;" parent="1" source="Yzbirrzvl_FB1wXZXd8P-171" target="Yzbirrzvl_FB1wXZXd8P-186" edge="1">
          <mxGeometry relative="1" as="geometry">
            <mxPoint x="2240" y="2050" as="sourcePoint"/>
          </mxGeometry>
        </mxCell>
        <mxCell id="Yzbirrzvl_FB1wXZXd8P-185" value="" style="rounded=0;orthogonalLoop=1;jettySize=auto;html=1;endArrow=halfCircle;endFill=0;entryX=0.5;entryY=0.5;entryDx=0;entryDy=0;endSize=6;strokeWidth=1;exitX=1;exitY=0.5;exitDx=0;exitDy=0;" parent="1" source="Yzbirrzvl_FB1wXZXd8P-12" target="Yzbirrzvl_FB1wXZXd8P-186" edge="1">
          <mxGeometry relative="1" as="geometry">
            <mxPoint x="2280" y="2050" as="sourcePoint"/>
          </mxGeometry>
        </mxCell>
        <mxCell id="Yzbirrzvl_FB1wXZXd8P-186" value="" style="ellipse;whiteSpace=wrap;html=1;fontFamily=Helvetica;fontSize=12;fontColor=#000000;align=center;strokeColor=#000000;fillColor=#ffffff;points=[];aspect=fixed;resizable=0;" parent="1" vertex="1">
          <mxGeometry x="2390" y="1937.5" width="10" height="10" as="geometry"/>
        </mxCell>
        <mxCell id="Yzbirrzvl_FB1wXZXd8P-187" value="" style="rounded=0;orthogonalLoop=1;jettySize=auto;html=1;endArrow=none;endFill=0;exitX=0.5;exitY=1;exitDx=0;exitDy=0;" parent="1" source="Yzbirrzvl_FB1wXZXd8P-169" target="Yzbirrzvl_FB1wXZXd8P-189" edge="1">
          <mxGeometry relative="1" as="geometry">
            <mxPoint x="2190" y="2025" as="sourcePoint"/>
          </mxGeometry>
        </mxCell>
        <mxCell id="Yzbirrzvl_FB1wXZXd8P-188" value="" style="rounded=0;orthogonalLoop=1;jettySize=auto;html=1;endArrow=halfCircle;endFill=0;entryX=0.5;entryY=0.5;entryDx=0;entryDy=0;endSize=6;strokeWidth=1;exitX=1;exitY=0.5;exitDx=0;exitDy=0;" parent="1" source="Yzbirrzvl_FB1wXZXd8P-12" target="Yzbirrzvl_FB1wXZXd8P-189" edge="1">
          <mxGeometry relative="1" as="geometry">
            <mxPoint x="2230" y="2025" as="sourcePoint"/>
          </mxGeometry>
        </mxCell>
        <mxCell id="Yzbirrzvl_FB1wXZXd8P-189" value="" style="ellipse;whiteSpace=wrap;html=1;fontFamily=Helvetica;fontSize=12;fontColor=#000000;align=center;strokeColor=#000000;fillColor=#ffffff;points=[];aspect=fixed;resizable=0;" parent="1" vertex="1">
          <mxGeometry x="2285" y="1937.5" width="10" height="10" as="geometry"/>
        </mxCell>
        <mxCell id="Yzbirrzvl_FB1wXZXd8P-190" value="" style="rounded=0;orthogonalLoop=1;jettySize=auto;html=1;endArrow=none;endFill=0;exitX=0.5;exitY=1;exitDx=0;exitDy=0;" parent="1" source="Yzbirrzvl_FB1wXZXd8P-173" target="Yzbirrzvl_FB1wXZXd8P-192" edge="1">
          <mxGeometry relative="1" as="geometry">
            <mxPoint x="2145" y="2005" as="sourcePoint"/>
          </mxGeometry>
        </mxCell>
        <mxCell id="Yzbirrzvl_FB1wXZXd8P-191" value="" style="rounded=0;orthogonalLoop=1;jettySize=auto;html=1;endArrow=halfCircle;endFill=0;entryX=0.5;entryY=0.5;entryDx=0;entryDy=0;endSize=6;strokeWidth=1;exitX=1;exitY=0.5;exitDx=0;exitDy=0;" parent="1" source="Yzbirrzvl_FB1wXZXd8P-12" target="Yzbirrzvl_FB1wXZXd8P-192" edge="1">
          <mxGeometry relative="1" as="geometry">
            <mxPoint x="2185" y="2005" as="sourcePoint"/>
          </mxGeometry>
        </mxCell>
        <mxCell id="Yzbirrzvl_FB1wXZXd8P-192" value="" style="ellipse;whiteSpace=wrap;html=1;fontFamily=Helvetica;fontSize=12;fontColor=#000000;align=center;strokeColor=#000000;fillColor=#ffffff;points=[];aspect=fixed;resizable=0;" parent="1" vertex="1">
          <mxGeometry x="2215" y="1937.5" width="10" height="10" as="geometry"/>
        </mxCell>
        <mxCell id="Yzbirrzvl_FB1wXZXd8P-193" value="" style="rounded=0;orthogonalLoop=1;jettySize=auto;html=1;endArrow=none;endFill=0;exitX=0.5;exitY=1;exitDx=0;exitDy=0;" parent="1" source="Yzbirrzvl_FB1wXZXd8P-167" target="Yzbirrzvl_FB1wXZXd8P-195" edge="1">
          <mxGeometry relative="1" as="geometry">
            <mxPoint x="2105" y="1965" as="sourcePoint"/>
          </mxGeometry>
        </mxCell>
        <mxCell id="Yzbirrzvl_FB1wXZXd8P-194" value="" style="rounded=0;orthogonalLoop=1;jettySize=auto;html=1;endArrow=halfCircle;endFill=0;entryX=0.5;entryY=0.5;entryDx=0;entryDy=0;endSize=6;strokeWidth=1;exitX=1;exitY=0.5;exitDx=0;exitDy=0;" parent="1" source="Yzbirrzvl_FB1wXZXd8P-12" target="Yzbirrzvl_FB1wXZXd8P-195" edge="1">
          <mxGeometry relative="1" as="geometry">
            <mxPoint x="2145" y="1965" as="sourcePoint"/>
          </mxGeometry>
        </mxCell>
        <mxCell id="Yzbirrzvl_FB1wXZXd8P-195" value="" style="ellipse;whiteSpace=wrap;html=1;fontFamily=Helvetica;fontSize=12;fontColor=#000000;align=center;strokeColor=#000000;fillColor=#ffffff;points=[];aspect=fixed;resizable=0;" parent="1" vertex="1">
          <mxGeometry x="2175" y="1937.5" width="10" height="10" as="geometry"/>
        </mxCell>
        <mxCell id="Yzbirrzvl_FB1wXZXd8P-199" value="" style="rounded=0;orthogonalLoop=1;jettySize=auto;html=1;endArrow=none;endFill=0;exitX=0.5;exitY=1;exitDx=0;exitDy=0;" parent="1" source="Yzbirrzvl_FB1wXZXd8P-177" target="Yzbirrzvl_FB1wXZXd8P-201" edge="1">
          <mxGeometry relative="1" as="geometry">
            <mxPoint x="2610" y="1675" as="sourcePoint"/>
          </mxGeometry>
        </mxCell>
        <mxCell id="Yzbirrzvl_FB1wXZXd8P-200" value="" style="rounded=0;orthogonalLoop=1;jettySize=auto;html=1;endArrow=halfCircle;endFill=0;entryX=0.5;entryY=0.5;entryDx=0;entryDy=0;endSize=6;strokeWidth=1;exitX=0;exitY=0.5;exitDx=0;exitDy=0;" parent="1" source="Yzbirrzvl_FB1wXZXd8P-163" target="Yzbirrzvl_FB1wXZXd8P-201" edge="1">
          <mxGeometry relative="1" as="geometry">
            <mxPoint x="2650" y="1675" as="sourcePoint"/>
          </mxGeometry>
        </mxCell>
        <mxCell id="Yzbirrzvl_FB1wXZXd8P-201" value="" style="ellipse;whiteSpace=wrap;html=1;fontFamily=Helvetica;fontSize=12;fontColor=#000000;align=center;strokeColor=#000000;fillColor=#ffffff;points=[];aspect=fixed;resizable=0;" parent="1" vertex="1">
          <mxGeometry x="2630" y="1640" width="10" height="10" as="geometry"/>
        </mxCell>
        <mxCell id="Yzbirrzvl_FB1wXZXd8P-202" value="" style="rounded=0;orthogonalLoop=1;jettySize=auto;html=1;endArrow=none;endFill=0;exitX=0.5;exitY=1;exitDx=0;exitDy=0;" parent="1" source="Yzbirrzvl_FB1wXZXd8P-171" target="Yzbirrzvl_FB1wXZXd8P-204" edge="1">
          <mxGeometry relative="1" as="geometry">
            <mxPoint x="2600" y="1663" as="sourcePoint"/>
          </mxGeometry>
        </mxCell>
        <mxCell id="Yzbirrzvl_FB1wXZXd8P-203" value="" style="rounded=0;orthogonalLoop=1;jettySize=auto;html=1;endArrow=halfCircle;endFill=0;entryX=0.5;entryY=0.5;entryDx=0;entryDy=0;endSize=6;strokeWidth=1;exitX=0;exitY=0.5;exitDx=0;exitDy=0;" parent="1" source="Yzbirrzvl_FB1wXZXd8P-163" target="Yzbirrzvl_FB1wXZXd8P-204" edge="1">
          <mxGeometry relative="1" as="geometry">
            <mxPoint x="2640" y="1663" as="sourcePoint"/>
          </mxGeometry>
        </mxCell>
        <mxCell id="Yzbirrzvl_FB1wXZXd8P-204" value="" style="ellipse;whiteSpace=wrap;html=1;fontFamily=Helvetica;fontSize=12;fontColor=#000000;align=center;strokeColor=#000000;fillColor=#ffffff;points=[];aspect=fixed;resizable=0;" parent="1" vertex="1">
          <mxGeometry x="2615" y="1658" width="10" height="10" as="geometry"/>
        </mxCell>
        <mxCell id="Yzbirrzvl_FB1wXZXd8P-205" value="" style="rounded=0;orthogonalLoop=1;jettySize=auto;html=1;endArrow=none;endFill=0;exitX=0.5;exitY=1;exitDx=0;exitDy=0;" parent="1" source="Yzbirrzvl_FB1wXZXd8P-169" target="Yzbirrzvl_FB1wXZXd8P-207" edge="1">
          <mxGeometry relative="1" as="geometry">
            <mxPoint x="2600" y="1685" as="sourcePoint"/>
          </mxGeometry>
        </mxCell>
        <mxCell id="Yzbirrzvl_FB1wXZXd8P-206" value="" style="rounded=0;orthogonalLoop=1;jettySize=auto;html=1;endArrow=halfCircle;endFill=0;entryX=0.5;entryY=0.5;entryDx=0;entryDy=0;endSize=6;strokeWidth=1;exitX=0;exitY=0.5;exitDx=0;exitDy=0;" parent="1" source="Yzbirrzvl_FB1wXZXd8P-163" target="Yzbirrzvl_FB1wXZXd8P-207" edge="1">
          <mxGeometry relative="1" as="geometry">
            <mxPoint x="2640" y="1685" as="sourcePoint"/>
          </mxGeometry>
        </mxCell>
        <mxCell id="Yzbirrzvl_FB1wXZXd8P-207" value="" style="ellipse;whiteSpace=wrap;html=1;fontFamily=Helvetica;fontSize=12;fontColor=#000000;align=center;strokeColor=#000000;fillColor=#ffffff;points=[];aspect=fixed;resizable=0;" parent="1" vertex="1">
          <mxGeometry x="2615" y="1680" width="10" height="10" as="geometry"/>
        </mxCell>
        <mxCell id="Yzbirrzvl_FB1wXZXd8P-208" value="" style="rounded=0;orthogonalLoop=1;jettySize=auto;html=1;endArrow=none;endFill=0;exitX=0.5;exitY=1;exitDx=0;exitDy=0;" parent="1" source="Yzbirrzvl_FB1wXZXd8P-167" target="Yzbirrzvl_FB1wXZXd8P-210" edge="1">
          <mxGeometry relative="1" as="geometry">
            <mxPoint x="2605" y="1707" as="sourcePoint"/>
          </mxGeometry>
        </mxCell>
        <mxCell id="Yzbirrzvl_FB1wXZXd8P-209" value="" style="rounded=0;orthogonalLoop=1;jettySize=auto;html=1;endArrow=halfCircle;endFill=0;entryX=0.5;entryY=0.5;entryDx=0;entryDy=0;endSize=6;strokeWidth=1;exitX=0;exitY=0.5;exitDx=0;exitDy=0;" parent="1" source="Yzbirrzvl_FB1wXZXd8P-163" target="Yzbirrzvl_FB1wXZXd8P-210" edge="1">
          <mxGeometry relative="1" as="geometry">
            <mxPoint x="2645" y="1707" as="sourcePoint"/>
          </mxGeometry>
        </mxCell>
        <mxCell id="Yzbirrzvl_FB1wXZXd8P-210" value="" style="ellipse;whiteSpace=wrap;html=1;fontFamily=Helvetica;fontSize=12;fontColor=#000000;align=center;strokeColor=#000000;fillColor=#ffffff;points=[];aspect=fixed;resizable=0;" parent="1" vertex="1">
          <mxGeometry x="2620" y="1702" width="10" height="10" as="geometry"/>
        </mxCell>
        <mxCell id="Yzbirrzvl_FB1wXZXd8P-215" value="" style="rounded=0;orthogonalLoop=1;jettySize=auto;html=1;endArrow=halfCircle;endFill=0;entryX=0.5;entryY=0.5;entryDx=0;entryDy=0;endSize=6;strokeWidth=1;exitX=0;exitY=0.5;exitDx=0;exitDy=0;" parent="1" source="Yzbirrzvl_FB1wXZXd8P-163" target="Yzbirrzvl_FB1wXZXd8P-216" edge="1">
          <mxGeometry relative="1" as="geometry">
            <mxPoint x="2655" y="1725" as="sourcePoint"/>
          </mxGeometry>
        </mxCell>
        <mxCell id="Yzbirrzvl_FB1wXZXd8P-216" value="" style="ellipse;whiteSpace=wrap;html=1;fontFamily=Helvetica;fontSize=12;fontColor=#000000;align=center;strokeColor=#000000;fillColor=#ffffff;points=[];aspect=fixed;resizable=0;" parent="1" vertex="1">
          <mxGeometry x="2630" y="1720" width="10" height="10" as="geometry"/>
        </mxCell>
        <mxCell id="Yzbirrzvl_FB1wXZXd8P-217" value="" style="rounded=0;orthogonalLoop=1;jettySize=auto;html=1;endArrow=none;endFill=0;exitX=1;exitY=0.5;exitDx=0;exitDy=0;" parent="1" source="Yzbirrzvl_FB1wXZXd8P-175" target="Yzbirrzvl_FB1wXZXd8P-219" edge="1">
          <mxGeometry relative="1" as="geometry">
            <mxPoint x="2625" y="1755" as="sourcePoint"/>
          </mxGeometry>
        </mxCell>
        <mxCell id="Yzbirrzvl_FB1wXZXd8P-218" value="" style="rounded=0;orthogonalLoop=1;jettySize=auto;html=1;endArrow=halfCircle;endFill=0;entryX=0.5;entryY=0.5;entryDx=0;entryDy=0;endSize=6;strokeWidth=1;exitX=0;exitY=0.5;exitDx=0;exitDy=0;" parent="1" source="Yzbirrzvl_FB1wXZXd8P-163" target="Yzbirrzvl_FB1wXZXd8P-219" edge="1">
          <mxGeometry relative="1" as="geometry">
            <mxPoint x="2665" y="1755" as="sourcePoint"/>
          </mxGeometry>
        </mxCell>
        <mxCell id="Yzbirrzvl_FB1wXZXd8P-219" value="" style="ellipse;whiteSpace=wrap;html=1;fontFamily=Helvetica;fontSize=12;fontColor=#000000;align=center;strokeColor=#000000;fillColor=#ffffff;points=[];aspect=fixed;resizable=0;" parent="1" vertex="1">
          <mxGeometry x="2640" y="1750" width="10" height="10" as="geometry"/>
        </mxCell>
        <mxCell id="Yzbirrzvl_FB1wXZXd8P-220" value="" style="rounded=0;orthogonalLoop=1;jettySize=auto;html=1;endArrow=none;endFill=0;exitX=0.5;exitY=0;exitDx=0;exitDy=0;" parent="1" source="Yzbirrzvl_FB1wXZXd8P-163" target="Yzbirrzvl_FB1wXZXd8P-222" edge="1">
          <mxGeometry relative="1" as="geometry">
            <mxPoint x="2770" y="1538" as="sourcePoint"/>
          </mxGeometry>
        </mxCell>
        <mxCell id="Yzbirrzvl_FB1wXZXd8P-221" value="" style="rounded=0;orthogonalLoop=1;jettySize=auto;html=1;endArrow=halfCircle;endFill=0;entryX=0.5;entryY=0.5;entryDx=0;entryDy=0;endSize=6;strokeWidth=1;exitX=0.5;exitY=1;exitDx=0;exitDy=0;" parent="1" source="Yzbirrzvl_FB1wXZXd8P-165" target="Yzbirrzvl_FB1wXZXd8P-222" edge="1">
          <mxGeometry relative="1" as="geometry">
            <mxPoint x="2810" y="1538" as="sourcePoint"/>
          </mxGeometry>
        </mxCell>
        <mxCell id="Yzbirrzvl_FB1wXZXd8P-222" value="" style="ellipse;whiteSpace=wrap;html=1;fontFamily=Helvetica;fontSize=12;fontColor=#000000;align=center;strokeColor=#000000;fillColor=#ffffff;points=[];aspect=fixed;resizable=0;" parent="1" vertex="1">
          <mxGeometry x="2785" y="1533" width="10" height="10" as="geometry"/>
        </mxCell>
        <mxCell id="Yzbirrzvl_FB1wXZXd8P-223" value="格式转换" style="html=1;" parent="1" vertex="1">
          <mxGeometry x="3030" y="1631" width="180" height="90" as="geometry"/>
        </mxCell>
        <mxCell id="Yzbirrzvl_FB1wXZXd8P-224" value="" style="shape=component;jettyWidth=8;jettyHeight=4;" parent="Yzbirrzvl_FB1wXZXd8P-223" vertex="1">
          <mxGeometry x="1" width="20" height="20" relative="1" as="geometry">
            <mxPoint x="-27" y="7" as="offset"/>
          </mxGeometry>
        </mxCell>
        <mxCell id="Yzbirrzvl_FB1wXZXd8P-225" value="" style="rounded=0;orthogonalLoop=1;jettySize=auto;html=1;endArrow=none;endFill=0;exitX=0;exitY=0.5;exitDx=0;exitDy=0;" parent="1" source="Yzbirrzvl_FB1wXZXd8P-223" target="Yzbirrzvl_FB1wXZXd8P-227" edge="1">
          <mxGeometry relative="1" as="geometry">
            <mxPoint x="2970" y="1673" as="sourcePoint"/>
          </mxGeometry>
        </mxCell>
        <mxCell id="Yzbirrzvl_FB1wXZXd8P-226" value="" style="rounded=0;orthogonalLoop=1;jettySize=auto;html=1;endArrow=halfCircle;endFill=0;entryX=0.5;entryY=0.5;entryDx=0;entryDy=0;endSize=6;strokeWidth=1;exitX=1;exitY=0.5;exitDx=0;exitDy=0;" parent="1" source="Yzbirrzvl_FB1wXZXd8P-163" target="Yzbirrzvl_FB1wXZXd8P-227" edge="1">
          <mxGeometry relative="1" as="geometry">
            <mxPoint x="3010" y="1673" as="sourcePoint"/>
          </mxGeometry>
        </mxCell>
        <mxCell id="Yzbirrzvl_FB1wXZXd8P-227" value="" style="ellipse;whiteSpace=wrap;html=1;fontFamily=Helvetica;fontSize=12;fontColor=#000000;align=center;strokeColor=#000000;fillColor=#ffffff;points=[];aspect=fixed;resizable=0;" parent="1" vertex="1">
          <mxGeometry x="2985" y="1671" width="10" height="10" as="geometry"/>
        </mxCell>
        <mxCell id="Yzbirrzvl_FB1wXZXd8P-214" value="" style="rounded=0;orthogonalLoop=1;jettySize=auto;html=1;endArrow=none;endFill=0;exitX=1;exitY=0.5;exitDx=0;exitDy=0;" parent="1" source="Yzbirrzvl_FB1wXZXd8P-173" target="Yzbirrzvl_FB1wXZXd8P-216" edge="1">
          <mxGeometry relative="1" as="geometry">
            <mxPoint x="2615" y="1725" as="sourcePoint"/>
          </mxGeometry>
        </mxCell>
        <mxCell id="Yzbirrzvl_FB1wXZXd8P-231" value="组件/页面存储" style="html=1;" parent="1" vertex="1">
          <mxGeometry x="2590" y="2045" width="180" height="90" as="geometry"/>
        </mxCell>
        <mxCell id="Yzbirrzvl_FB1wXZXd8P-232" value="" style="shape=component;jettyWidth=8;jettyHeight=4;" parent="Yzbirrzvl_FB1wXZXd8P-231" vertex="1">
          <mxGeometry x="1" width="20" height="20" relative="1" as="geometry">
            <mxPoint x="-27" y="7" as="offset"/>
          </mxGeometry>
        </mxCell>
        <mxCell id="Yzbirrzvl_FB1wXZXd8P-233" value="&amp;lt;&amp;lt;database&amp;gt;&amp;gt;&lt;br&gt;edit_page" style="html=1;" parent="1" vertex="1">
          <mxGeometry x="2590" y="2250" width="180" height="90" as="geometry"/>
        </mxCell>
        <mxCell id="Yzbirrzvl_FB1wXZXd8P-234" value="" style="shape=component;jettyWidth=8;jettyHeight=4;" parent="Yzbirrzvl_FB1wXZXd8P-233" vertex="1">
          <mxGeometry x="1" width="20" height="20" relative="1" as="geometry">
            <mxPoint x="-27" y="7" as="offset"/>
          </mxGeometry>
        </mxCell>
        <mxCell id="Yzbirrzvl_FB1wXZXd8P-235" value="组件/页面存储" style="html=1;" parent="1" vertex="1">
          <mxGeometry x="2820" y="2045" width="180" height="90" as="geometry"/>
        </mxCell>
        <mxCell id="Yzbirrzvl_FB1wXZXd8P-236" value="" style="shape=component;jettyWidth=8;jettyHeight=4;" parent="Yzbirrzvl_FB1wXZXd8P-235" vertex="1">
          <mxGeometry x="1" width="20" height="20" relative="1" as="geometry">
            <mxPoint x="-27" y="7" as="offset"/>
          </mxGeometry>
        </mxCell>
        <mxCell id="Yzbirrzvl_FB1wXZXd8P-237" value="&amp;lt;&amp;lt;database&amp;gt;&amp;gt;&lt;br&gt;component" style="html=1;" parent="1" vertex="1">
          <mxGeometry x="2820" y="2250" width="180" height="90" as="geometry"/>
        </mxCell>
        <mxCell id="Yzbirrzvl_FB1wXZXd8P-238" value="" style="shape=component;jettyWidth=8;jettyHeight=4;" parent="Yzbirrzvl_FB1wXZXd8P-237" vertex="1">
          <mxGeometry x="1" width="20" height="20" relative="1" as="geometry">
            <mxPoint x="-27" y="7" as="offset"/>
          </mxGeometry>
        </mxCell>
        <mxCell id="Yzbirrzvl_FB1wXZXd8P-239" value="" style="rounded=0;orthogonalLoop=1;jettySize=auto;html=1;endArrow=none;endFill=0;exitX=0.5;exitY=0;exitDx=0;exitDy=0;" parent="1" source="Yzbirrzvl_FB1wXZXd8P-231" target="Yzbirrzvl_FB1wXZXd8P-241" edge="1">
          <mxGeometry relative="1" as="geometry">
            <mxPoint x="2660" y="1875" as="sourcePoint"/>
          </mxGeometry>
        </mxCell>
        <mxCell id="Yzbirrzvl_FB1wXZXd8P-240" value="" style="rounded=0;orthogonalLoop=1;jettySize=auto;html=1;endArrow=halfCircle;endFill=0;entryX=0.5;entryY=0.5;entryDx=0;entryDy=0;endSize=6;strokeWidth=1;exitX=0.5;exitY=1;exitDx=0;exitDy=0;" parent="1" source="Yzbirrzvl_FB1wXZXd8P-163" target="Yzbirrzvl_FB1wXZXd8P-241" edge="1">
          <mxGeometry relative="1" as="geometry">
            <mxPoint x="2700" y="1875" as="sourcePoint"/>
          </mxGeometry>
        </mxCell>
        <mxCell id="Yzbirrzvl_FB1wXZXd8P-241" value="" style="ellipse;whiteSpace=wrap;html=1;fontFamily=Helvetica;fontSize=12;fontColor=#000000;align=center;strokeColor=#000000;fillColor=#ffffff;points=[];aspect=fixed;resizable=0;" parent="1" vertex="1">
          <mxGeometry x="2675" y="1870" width="10" height="10" as="geometry"/>
        </mxCell>
        <mxCell id="Yzbirrzvl_FB1wXZXd8P-242" value="" style="rounded=0;orthogonalLoop=1;jettySize=auto;html=1;endArrow=none;endFill=0;exitX=0.5;exitY=0;exitDx=0;exitDy=0;" parent="1" source="Yzbirrzvl_FB1wXZXd8P-235" target="Yzbirrzvl_FB1wXZXd8P-244" edge="1">
          <mxGeometry relative="1" as="geometry">
            <mxPoint x="2890" y="1875" as="sourcePoint"/>
          </mxGeometry>
        </mxCell>
        <mxCell id="Yzbirrzvl_FB1wXZXd8P-243" value="" style="rounded=0;orthogonalLoop=1;jettySize=auto;html=1;endArrow=halfCircle;endFill=0;entryX=0.5;entryY=0.5;entryDx=0;entryDy=0;endSize=6;strokeWidth=1;exitX=0.5;exitY=1;exitDx=0;exitDy=0;" parent="1" source="Yzbirrzvl_FB1wXZXd8P-163" target="Yzbirrzvl_FB1wXZXd8P-244" edge="1">
          <mxGeometry relative="1" as="geometry">
            <mxPoint x="2930" y="1875" as="sourcePoint"/>
          </mxGeometry>
        </mxCell>
        <mxCell id="Yzbirrzvl_FB1wXZXd8P-244" value="" style="ellipse;whiteSpace=wrap;html=1;fontFamily=Helvetica;fontSize=12;fontColor=#000000;align=center;strokeColor=#000000;fillColor=#ffffff;points=[];aspect=fixed;resizable=0;" parent="1" vertex="1">
          <mxGeometry x="2905" y="1870" width="10" height="10" as="geometry"/>
        </mxCell>
        <mxCell id="Yzbirrzvl_FB1wXZXd8P-245" value="" style="rounded=0;orthogonalLoop=1;jettySize=auto;html=1;endArrow=none;endFill=0;exitX=0.5;exitY=0;exitDx=0;exitDy=0;" parent="1" source="Yzbirrzvl_FB1wXZXd8P-233" target="Yzbirrzvl_FB1wXZXd8P-247" edge="1">
          <mxGeometry relative="1" as="geometry">
            <mxPoint x="2660" y="2193" as="sourcePoint"/>
          </mxGeometry>
        </mxCell>
        <mxCell id="Yzbirrzvl_FB1wXZXd8P-246" value="" style="rounded=0;orthogonalLoop=1;jettySize=auto;html=1;endArrow=halfCircle;endFill=0;entryX=0.5;entryY=0.5;entryDx=0;entryDy=0;endSize=6;strokeWidth=1;exitX=0.5;exitY=1;exitDx=0;exitDy=0;" parent="1" source="Yzbirrzvl_FB1wXZXd8P-231" target="Yzbirrzvl_FB1wXZXd8P-247" edge="1">
          <mxGeometry relative="1" as="geometry">
            <mxPoint x="2700" y="2193" as="sourcePoint"/>
          </mxGeometry>
        </mxCell>
        <mxCell id="Yzbirrzvl_FB1wXZXd8P-247" value="" style="ellipse;whiteSpace=wrap;html=1;fontFamily=Helvetica;fontSize=12;fontColor=#000000;align=center;strokeColor=#000000;fillColor=#ffffff;points=[];aspect=fixed;resizable=0;" parent="1" vertex="1">
          <mxGeometry x="2675" y="2188" width="10" height="10" as="geometry"/>
        </mxCell>
        <mxCell id="Yzbirrzvl_FB1wXZXd8P-248" value="" style="rounded=0;orthogonalLoop=1;jettySize=auto;html=1;endArrow=none;endFill=0;exitX=0.5;exitY=0;exitDx=0;exitDy=0;" parent="1" source="Yzbirrzvl_FB1wXZXd8P-237" target="Yzbirrzvl_FB1wXZXd8P-250" edge="1">
          <mxGeometry relative="1" as="geometry">
            <mxPoint x="2890" y="2193" as="sourcePoint"/>
          </mxGeometry>
        </mxCell>
        <mxCell id="Yzbirrzvl_FB1wXZXd8P-249" value="" style="rounded=0;orthogonalLoop=1;jettySize=auto;html=1;endArrow=halfCircle;endFill=0;entryX=0.5;entryY=0.5;entryDx=0;entryDy=0;endSize=6;strokeWidth=1;exitX=0.5;exitY=1;exitDx=0;exitDy=0;" parent="1" source="Yzbirrzvl_FB1wXZXd8P-235" target="Yzbirrzvl_FB1wXZXd8P-250" edge="1">
          <mxGeometry relative="1" as="geometry">
            <mxPoint x="2930" y="2193" as="sourcePoint"/>
          </mxGeometry>
        </mxCell>
        <mxCell id="Yzbirrzvl_FB1wXZXd8P-250" value="" style="ellipse;whiteSpace=wrap;html=1;fontFamily=Helvetica;fontSize=12;fontColor=#000000;align=center;strokeColor=#000000;fillColor=#ffffff;points=[];aspect=fixed;resizable=0;" parent="1" vertex="1">
          <mxGeometry x="2905" y="2188" width="10" height="10" as="geometry"/>
        </mxCell>
        <mxCell id="Yzbirrzvl_FB1wXZXd8P-251" value="" style="rounded=0;orthogonalLoop=1;jettySize=auto;html=1;endArrow=none;endFill=0;exitX=0.5;exitY=1;exitDx=0;exitDy=0;" parent="1" source="Yzbirrzvl_FB1wXZXd8P-228" target="Yzbirrzvl_FB1wXZXd8P-253" edge="1">
          <mxGeometry relative="1" as="geometry">
            <mxPoint x="2315" y="1938" as="sourcePoint"/>
          </mxGeometry>
        </mxCell>
        <mxCell id="Yzbirrzvl_FB1wXZXd8P-252" value="" style="rounded=0;orthogonalLoop=1;jettySize=auto;html=1;endArrow=halfCircle;endFill=0;entryX=0.5;entryY=0.5;entryDx=0;entryDy=0;endSize=6;strokeWidth=1;exitX=1;exitY=0.5;exitDx=0;exitDy=0;" parent="1" source="Yzbirrzvl_FB1wXZXd8P-12" target="Yzbirrzvl_FB1wXZXd8P-253" edge="1">
          <mxGeometry relative="1" as="geometry">
            <mxPoint x="2355" y="1938" as="sourcePoint"/>
          </mxGeometry>
        </mxCell>
        <mxCell id="Yzbirrzvl_FB1wXZXd8P-253" value="" style="ellipse;whiteSpace=wrap;html=1;fontFamily=Helvetica;fontSize=12;fontColor=#000000;align=center;strokeColor=#000000;fillColor=#ffffff;points=[];aspect=fixed;resizable=0;" parent="1" vertex="1">
          <mxGeometry x="2320" y="1937.5" width="10" height="10" as="geometry"/>
        </mxCell>
        <mxCell id="Yzbirrzvl_FB1wXZXd8P-256" value="" style="html=1;" parent="1" vertex="1">
          <mxGeometry x="465" y="910" width="290" height="160" as="geometry"/>
        </mxCell>
        <mxCell id="Yzbirrzvl_FB1wXZXd8P-257" value="" style="shape=component;jettyWidth=8;jettyHeight=4;" parent="Yzbirrzvl_FB1wXZXd8P-256" vertex="1">
          <mxGeometry x="1" width="20" height="20" relative="1" as="geometry">
            <mxPoint x="-27" y="7" as="offset"/>
          </mxGeometry>
        </mxCell>
        <mxCell id="Yzbirrzvl_FB1wXZXd8P-263" style="edgeStyle=none;rounded=0;orthogonalLoop=1;jettySize=auto;html=1;exitX=1;exitY=0.5;exitDx=0;exitDy=0;entryX=0;entryY=0.5;entryDx=0;entryDy=0;endArrow=none;endFill=0;" parent="Yzbirrzvl_FB1wXZXd8P-256" source="Yzbirrzvl_FB1wXZXd8P-258" target="Yzbirrzvl_FB1wXZXd8P-260" edge="1">
          <mxGeometry relative="1" as="geometry"/>
        </mxCell>
        <mxCell id="Yzbirrzvl_FB1wXZXd8P-258" value="选择组件模板" style="html=1;" parent="Yzbirrzvl_FB1wXZXd8P-256" vertex="1">
          <mxGeometry x="20" y="52.5" width="110" height="55" as="geometry"/>
        </mxCell>
        <mxCell id="Yzbirrzvl_FB1wXZXd8P-259" value="" style="shape=component;jettyWidth=8;jettyHeight=4;" parent="Yzbirrzvl_FB1wXZXd8P-258" vertex="1">
          <mxGeometry x="1" width="20" height="20" relative="1" as="geometry">
            <mxPoint x="-27" y="7" as="offset"/>
          </mxGeometry>
        </mxCell>
        <mxCell id="Yzbirrzvl_FB1wXZXd8P-260" value="选择暴露属性" style="html=1;" parent="Yzbirrzvl_FB1wXZXd8P-256" vertex="1">
          <mxGeometry x="160" y="52.5" width="110" height="55" as="geometry"/>
        </mxCell>
        <mxCell id="Yzbirrzvl_FB1wXZXd8P-261" value="" style="shape=component;jettyWidth=8;jettyHeight=4;" parent="Yzbirrzvl_FB1wXZXd8P-260" vertex="1">
          <mxGeometry x="1" width="20" height="20" relative="1" as="geometry">
            <mxPoint x="-27" y="7" as="offset"/>
          </mxGeometry>
        </mxCell>
        <mxCell id="Yzbirrzvl_FB1wXZXd8P-262" value="自动生成交互" style="text;html=1;strokeColor=none;fillColor=none;align=center;verticalAlign=middle;whiteSpace=wrap;rounded=0;" parent="Yzbirrzvl_FB1wXZXd8P-256" vertex="1">
          <mxGeometry x="113" width="78" height="20" as="geometry"/>
        </mxCell>
        <mxCell id="Yzbirrzvl_FB1wXZXd8P-264" value="" style="rounded=0;orthogonalLoop=1;jettySize=auto;html=1;endArrow=none;endFill=0;exitX=0.5;exitY=0;exitDx=0;exitDy=0;" parent="1" source="Yzbirrzvl_FB1wXZXd8P-80" target="Yzbirrzvl_FB1wXZXd8P-266" edge="1">
          <mxGeometry relative="1" as="geometry">
            <mxPoint x="820" y="1075" as="sourcePoint"/>
          </mxGeometry>
        </mxCell>
        <mxCell id="Yzbirrzvl_FB1wXZXd8P-265" value="" style="rounded=0;orthogonalLoop=1;jettySize=auto;html=1;endArrow=halfCircle;endFill=0;entryX=0.5;entryY=0.5;entryDx=0;entryDy=0;endSize=6;strokeWidth=1;exitX=0.5;exitY=1;exitDx=0;exitDy=0;" parent="1" source="Yzbirrzvl_FB1wXZXd8P-279" target="Yzbirrzvl_FB1wXZXd8P-266" edge="1">
          <mxGeometry relative="1" as="geometry">
            <mxPoint x="860" y="1075" as="sourcePoint"/>
          </mxGeometry>
        </mxCell>
        <mxCell id="Yzbirrzvl_FB1wXZXd8P-266" value="" style="ellipse;whiteSpace=wrap;html=1;fontFamily=Helvetica;fontSize=12;fontColor=#000000;align=center;strokeColor=#000000;fillColor=#ffffff;points=[];aspect=fixed;resizable=0;" parent="1" vertex="1">
          <mxGeometry x="840" y="1110" width="10" height="10" as="geometry"/>
        </mxCell>
        <mxCell id="Yzbirrzvl_FB1wXZXd8P-267" value="" style="rounded=0;orthogonalLoop=1;jettySize=auto;html=1;endArrow=none;endFill=0;exitX=0.5;exitY=0;exitDx=0;exitDy=0;" parent="1" source="Yzbirrzvl_FB1wXZXd8P-90" target="Yzbirrzvl_FB1wXZXd8P-269" edge="1">
          <mxGeometry relative="1" as="geometry">
            <mxPoint x="1150" y="1035" as="sourcePoint"/>
          </mxGeometry>
        </mxCell>
        <mxCell id="Yzbirrzvl_FB1wXZXd8P-268" value="" style="rounded=0;orthogonalLoop=1;jettySize=auto;html=1;endArrow=halfCircle;endFill=0;entryX=0.5;entryY=0.5;entryDx=0;entryDy=0;endSize=6;strokeWidth=1;exitX=0.5;exitY=1;exitDx=0;exitDy=0;" parent="1" source="Yzbirrzvl_FB1wXZXd8P-279" target="Yzbirrzvl_FB1wXZXd8P-269" edge="1">
          <mxGeometry relative="1" as="geometry">
            <mxPoint x="1190" y="1035" as="sourcePoint"/>
          </mxGeometry>
        </mxCell>
        <mxCell id="Yzbirrzvl_FB1wXZXd8P-269" value="" style="ellipse;whiteSpace=wrap;html=1;fontFamily=Helvetica;fontSize=12;fontColor=#000000;align=center;strokeColor=#000000;fillColor=#ffffff;points=[];aspect=fixed;resizable=0;" parent="1" vertex="1">
          <mxGeometry x="1190" y="1110" width="10" height="10" as="geometry"/>
        </mxCell>
        <mxCell id="Yzbirrzvl_FB1wXZXd8P-270" value="" style="rounded=0;orthogonalLoop=1;jettySize=auto;html=1;endArrow=none;endFill=0;exitX=0.5;exitY=0;exitDx=0;exitDy=0;" parent="1" source="Yzbirrzvl_FB1wXZXd8P-95" target="Yzbirrzvl_FB1wXZXd8P-272" edge="1">
          <mxGeometry relative="1" as="geometry">
            <mxPoint x="1480" y="1045" as="sourcePoint"/>
          </mxGeometry>
        </mxCell>
        <mxCell id="Yzbirrzvl_FB1wXZXd8P-271" value="" style="rounded=0;orthogonalLoop=1;jettySize=auto;html=1;endArrow=halfCircle;endFill=0;entryX=0.5;entryY=0.5;entryDx=0;entryDy=0;endSize=6;strokeWidth=1;exitX=0.5;exitY=1;exitDx=0;exitDy=0;" parent="1" source="Yzbirrzvl_FB1wXZXd8P-279" target="Yzbirrzvl_FB1wXZXd8P-272" edge="1">
          <mxGeometry relative="1" as="geometry">
            <mxPoint x="1520" y="1045" as="sourcePoint"/>
          </mxGeometry>
        </mxCell>
        <mxCell id="Yzbirrzvl_FB1wXZXd8P-272" value="" style="ellipse;whiteSpace=wrap;html=1;fontFamily=Helvetica;fontSize=12;fontColor=#000000;align=center;strokeColor=#000000;fillColor=#ffffff;points=[];aspect=fixed;resizable=0;" parent="1" vertex="1">
          <mxGeometry x="1530" y="1120" width="10" height="10" as="geometry"/>
        </mxCell>
        <mxCell id="Yzbirrzvl_FB1wXZXd8P-273" value="" style="rounded=0;orthogonalLoop=1;jettySize=auto;html=1;endArrow=none;endFill=0;exitX=0.5;exitY=0;exitDx=0;exitDy=0;" parent="1" source="Yzbirrzvl_FB1wXZXd8P-100" target="Yzbirrzvl_FB1wXZXd8P-275" edge="1">
          <mxGeometry relative="1" as="geometry">
            <mxPoint x="1840" y="1045" as="sourcePoint"/>
          </mxGeometry>
        </mxCell>
        <mxCell id="Yzbirrzvl_FB1wXZXd8P-274" value="" style="rounded=0;orthogonalLoop=1;jettySize=auto;html=1;endArrow=halfCircle;endFill=0;entryX=0.5;entryY=0.5;entryDx=0;entryDy=0;endSize=6;strokeWidth=1;exitX=0.5;exitY=1;exitDx=0;exitDy=0;" parent="1" source="Yzbirrzvl_FB1wXZXd8P-279" target="Yzbirrzvl_FB1wXZXd8P-275" edge="1">
          <mxGeometry relative="1" as="geometry">
            <mxPoint x="1880" y="1045" as="sourcePoint"/>
          </mxGeometry>
        </mxCell>
        <mxCell id="Yzbirrzvl_FB1wXZXd8P-275" value="" style="ellipse;whiteSpace=wrap;html=1;fontFamily=Helvetica;fontSize=12;fontColor=#000000;align=center;strokeColor=#000000;fillColor=#ffffff;points=[];aspect=fixed;resizable=0;" parent="1" vertex="1">
          <mxGeometry x="1870" y="1130" width="10" height="10" as="geometry"/>
        </mxCell>
        <mxCell id="Yzbirrzvl_FB1wXZXd8P-276" value="" style="rounded=0;orthogonalLoop=1;jettySize=auto;html=1;endArrow=none;endFill=0;exitX=0;exitY=0.5;exitDx=0;exitDy=0;" parent="1" source="Yzbirrzvl_FB1wXZXd8P-124" target="Yzbirrzvl_FB1wXZXd8P-278" edge="1">
          <mxGeometry relative="1" as="geometry">
            <mxPoint x="200" y="1339" as="sourcePoint"/>
          </mxGeometry>
        </mxCell>
        <mxCell id="Yzbirrzvl_FB1wXZXd8P-277" value="" style="rounded=0;orthogonalLoop=1;jettySize=auto;html=1;endArrow=halfCircle;endFill=0;entryX=0.5;entryY=0.5;entryDx=0;entryDy=0;endSize=6;strokeWidth=1;exitX=0.5;exitY=1;exitDx=0;exitDy=0;" parent="1" source="Yzbirrzvl_FB1wXZXd8P-256" target="Yzbirrzvl_FB1wXZXd8P-278" edge="1">
          <mxGeometry relative="1" as="geometry">
            <mxPoint x="240" y="1339" as="sourcePoint"/>
          </mxGeometry>
        </mxCell>
        <mxCell id="Yzbirrzvl_FB1wXZXd8P-278" value="" style="ellipse;whiteSpace=wrap;html=1;fontFamily=Helvetica;fontSize=12;fontColor=#000000;align=center;strokeColor=#000000;fillColor=#ffffff;points=[];aspect=fixed;resizable=0;" parent="1" vertex="1">
          <mxGeometry x="215" y="1334" width="10" height="10" as="geometry"/>
        </mxCell>
        <mxCell id="Yzbirrzvl_FB1wXZXd8P-279" value="整体数据自动生成" style="html=1;" parent="1" vertex="1">
          <mxGeometry x="1265" y="945" width="180" height="90" as="geometry"/>
        </mxCell>
        <mxCell id="Yzbirrzvl_FB1wXZXd8P-280" value="" style="shape=component;jettyWidth=8;jettyHeight=4;" parent="Yzbirrzvl_FB1wXZXd8P-279" vertex="1">
          <mxGeometry x="1" width="20" height="20" relative="1" as="geometry">
            <mxPoint x="-27" y="7" as="offset"/>
          </mxGeometry>
        </mxCell>
        <mxCell id="Yzbirrzvl_FB1wXZXd8P-282" value="" style="rounded=0;orthogonalLoop=1;jettySize=auto;html=1;endArrow=none;endFill=0;exitX=0;exitY=0.5;exitDx=0;exitDy=0;" parent="1" source="Yzbirrzvl_FB1wXZXd8P-279" target="Yzbirrzvl_FB1wXZXd8P-284" edge="1">
          <mxGeometry relative="1" as="geometry">
            <mxPoint x="1020" y="940" as="sourcePoint"/>
          </mxGeometry>
        </mxCell>
        <mxCell id="Yzbirrzvl_FB1wXZXd8P-283" value="" style="rounded=0;orthogonalLoop=1;jettySize=auto;html=1;endArrow=halfCircle;endFill=0;entryX=0.5;entryY=0.5;entryDx=0;entryDy=0;endSize=6;strokeWidth=1;exitX=1;exitY=0.5;exitDx=0;exitDy=0;" parent="1" source="Yzbirrzvl_FB1wXZXd8P-260" target="Yzbirrzvl_FB1wXZXd8P-284" edge="1">
          <mxGeometry relative="1" as="geometry">
            <mxPoint x="1060" y="940" as="sourcePoint"/>
          </mxGeometry>
        </mxCell>
        <mxCell id="Yzbirrzvl_FB1wXZXd8P-284" value="" style="ellipse;whiteSpace=wrap;html=1;fontFamily=Helvetica;fontSize=12;fontColor=#000000;align=center;strokeColor=#000000;fillColor=#ffffff;points=[];aspect=fixed;resizable=0;" parent="1" vertex="1">
          <mxGeometry x="1040" y="985" width="10" height="10" as="geometry"/>
        </mxCell>
        <mxCell id="Yzbirrzvl_FB1wXZXd8P-291" value="获取组件模板" style="text;html=1;strokeColor=none;fillColor=none;align=center;verticalAlign=middle;whiteSpace=wrap;rounded=0;" parent="1" vertex="1">
          <mxGeometry x="170" y="1305" width="40" height="20" as="geometry"/>
        </mxCell>
        <mxCell id="Yzbirrzvl_FB1wXZXd8P-293" value="调用数据整体生成" style="text;html=1;strokeColor=none;fillColor=none;align=center;verticalAlign=middle;whiteSpace=wrap;rounded=0;" parent="1" vertex="1">
          <mxGeometry x="995" y="945" width="100" height="20" as="geometry"/>
        </mxCell>
        <mxCell id="Yzbirrzvl_FB1wXZXd8P-294" value="传输数据至viewModel" style="text;html=1;strokeColor=none;fillColor=none;align=center;verticalAlign=middle;whiteSpace=wrap;rounded=0;" parent="1" vertex="1">
          <mxGeometry x="630" y="1790" width="80" height="20" as="geometry"/>
        </mxCell>
        <mxCell id="Yzbirrzvl_FB1wXZXd8P-296" value="GUI服务&lt;br&gt;页面制作" style="html=1;" parent="1" vertex="1">
          <mxGeometry x="1505" y="2045" width="180" height="90" as="geometry"/>
        </mxCell>
        <mxCell id="Yzbirrzvl_FB1wXZXd8P-297" value="" style="shape=component;jettyWidth=8;jettyHeight=4;" parent="Yzbirrzvl_FB1wXZXd8P-296" vertex="1">
          <mxGeometry x="1" width="20" height="20" relative="1" as="geometry">
            <mxPoint x="-27" y="7" as="offset"/>
          </mxGeometry>
        </mxCell>
        <mxCell id="Yzbirrzvl_FB1wXZXd8P-298" value="" style="rounded=0;orthogonalLoop=1;jettySize=auto;html=1;endArrow=none;endFill=0;exitX=0.5;exitY=0;exitDx=0;exitDy=0;" parent="1" source="Yzbirrzvl_FB1wXZXd8P-296" target="Yzbirrzvl_FB1wXZXd8P-300" edge="1">
          <mxGeometry relative="1" as="geometry">
            <mxPoint x="1305" y="1835" as="sourcePoint"/>
          </mxGeometry>
        </mxCell>
        <mxCell id="Yzbirrzvl_FB1wXZXd8P-299" value="" style="rounded=0;orthogonalLoop=1;jettySize=auto;html=1;endArrow=halfCircle;endFill=0;entryX=0.5;entryY=0.5;entryDx=0;entryDy=0;endSize=6;strokeWidth=1;exitX=0.5;exitY=1;exitDx=0;exitDy=0;" parent="1" source="Yzbirrzvl_FB1wXZXd8P-25" target="Yzbirrzvl_FB1wXZXd8P-300" edge="1">
          <mxGeometry relative="1" as="geometry">
            <mxPoint x="1430" y="2085" as="sourcePoint"/>
          </mxGeometry>
        </mxCell>
        <mxCell id="Yzbirrzvl_FB1wXZXd8P-300" value="" style="ellipse;whiteSpace=wrap;html=1;fontFamily=Helvetica;fontSize=12;fontColor=#000000;align=center;strokeColor=#000000;fillColor=#ffffff;points=[];aspect=fixed;resizable=0;" parent="1" vertex="1">
          <mxGeometry x="1330" y="1830" width="10" height="10" as="geometry"/>
        </mxCell>
        <mxCell id="Yzbirrzvl_FB1wXZXd8P-301" value="" style="rounded=0;orthogonalLoop=1;jettySize=auto;html=1;endArrow=none;endFill=0;exitX=0.5;exitY=0;exitDx=0;exitDy=0;" parent="1" source="Yzbirrzvl_FB1wXZXd8P-296" target="Yzbirrzvl_FB1wXZXd8P-303" edge="1">
          <mxGeometry relative="1" as="geometry">
            <mxPoint x="1575" y="1835" as="sourcePoint"/>
          </mxGeometry>
        </mxCell>
        <mxCell id="Yzbirrzvl_FB1wXZXd8P-302" value="" style="rounded=0;orthogonalLoop=1;jettySize=auto;html=1;endArrow=halfCircle;endFill=0;entryX=0.5;entryY=0.5;entryDx=0;entryDy=0;endSize=6;strokeWidth=1;exitX=0.5;exitY=1;exitDx=0;exitDy=0;" parent="1" source="Yzbirrzvl_FB1wXZXd8P-32" target="Yzbirrzvl_FB1wXZXd8P-303" edge="1">
          <mxGeometry relative="1" as="geometry">
            <mxPoint x="1700" y="2085" as="sourcePoint"/>
          </mxGeometry>
        </mxCell>
        <mxCell id="Yzbirrzvl_FB1wXZXd8P-303" value="" style="ellipse;whiteSpace=wrap;html=1;fontFamily=Helvetica;fontSize=12;fontColor=#000000;align=center;strokeColor=#000000;fillColor=#ffffff;points=[];aspect=fixed;resizable=0;" parent="1" vertex="1">
          <mxGeometry x="1640" y="1839" width="10" height="10" as="geometry"/>
        </mxCell>
        <mxCell id="Yzbirrzvl_FB1wXZXd8P-304" value="" style="rounded=0;orthogonalLoop=1;jettySize=auto;html=1;endArrow=none;endFill=0;exitX=0.5;exitY=0;exitDx=0;exitDy=0;" parent="1" source="Yzbirrzvl_FB1wXZXd8P-296" target="Yzbirrzvl_FB1wXZXd8P-306" edge="1">
          <mxGeometry relative="1" as="geometry">
            <mxPoint x="1760" y="1839" as="sourcePoint"/>
          </mxGeometry>
        </mxCell>
        <mxCell id="Yzbirrzvl_FB1wXZXd8P-305" value="" style="rounded=0;orthogonalLoop=1;jettySize=auto;html=1;endArrow=halfCircle;endFill=0;entryX=0.5;entryY=0.5;entryDx=0;entryDy=0;endSize=6;strokeWidth=1;exitX=0.5;exitY=1;exitDx=0;exitDy=0;" parent="1" source="Yzbirrzvl_FB1wXZXd8P-39" target="Yzbirrzvl_FB1wXZXd8P-306" edge="1">
          <mxGeometry relative="1" as="geometry">
            <mxPoint x="1800" y="1839" as="sourcePoint"/>
          </mxGeometry>
        </mxCell>
        <mxCell id="Yzbirrzvl_FB1wXZXd8P-306" value="" style="ellipse;whiteSpace=wrap;html=1;fontFamily=Helvetica;fontSize=12;fontColor=#000000;align=center;strokeColor=#000000;fillColor=#ffffff;points=[];aspect=fixed;resizable=0;" parent="1" vertex="1">
          <mxGeometry x="1820" y="1839" width="10" height="10" as="geometry"/>
        </mxCell>
        <mxCell id="s5eANWY_aAkniIFlVrw5-1" value="" style="rounded=0;orthogonalLoop=1;jettySize=auto;html=1;endArrow=none;endFill=0;exitX=0.5;exitY=0;exitDx=0;exitDy=0;" edge="1" target="s5eANWY_aAkniIFlVrw5-3" parent="1" source="Yzbirrzvl_FB1wXZXd8P-12">
          <mxGeometry relative="1" as="geometry">
            <mxPoint x="1370" y="1834" as="sourcePoint"/>
          </mxGeometry>
        </mxCell>
        <mxCell id="s5eANWY_aAkniIFlVrw5-2" value="" style="rounded=0;orthogonalLoop=1;jettySize=auto;html=1;endArrow=halfCircle;endFill=0;entryX=0.5;entryY=0.5;entryDx=0;entryDy=0;endSize=6;strokeWidth=1;exitX=0.5;exitY=1;exitDx=0;exitDy=0;" edge="1" target="s5eANWY_aAkniIFlVrw5-3" parent="1" source="Yzbirrzvl_FB1wXZXd8P-25">
          <mxGeometry relative="1" as="geometry">
            <mxPoint x="1410" y="1834" as="sourcePoint"/>
          </mxGeometry>
        </mxCell>
        <mxCell id="s5eANWY_aAkniIFlVrw5-3" value="" style="ellipse;whiteSpace=wrap;html=1;fontFamily=Helvetica;fontSize=12;fontColor=#000000;align=center;strokeColor=#000000;fillColor=#ffffff;points=[];aspect=fixed;resizable=0;" vertex="1" parent="1">
          <mxGeometry x="1385" y="1829" width="10" height="10" as="geometry"/>
        </mxCell>
        <mxCell id="s5eANWY_aAkniIFlVrw5-4" value="" style="rounded=0;orthogonalLoop=1;jettySize=auto;html=1;endArrow=none;endFill=0;exitX=0.5;exitY=0;exitDx=0;exitDy=0;" edge="1" target="s5eANWY_aAkniIFlVrw5-6" parent="1" source="Yzbirrzvl_FB1wXZXd8P-12">
          <mxGeometry relative="1" as="geometry">
            <mxPoint x="1690" y="1840" as="sourcePoint"/>
          </mxGeometry>
        </mxCell>
        <mxCell id="s5eANWY_aAkniIFlVrw5-5" value="" style="rounded=0;orthogonalLoop=1;jettySize=auto;html=1;endArrow=halfCircle;endFill=0;entryX=0.5;entryY=0.5;entryDx=0;entryDy=0;endSize=6;strokeWidth=1;exitX=0.5;exitY=1;exitDx=0;exitDy=0;" edge="1" target="s5eANWY_aAkniIFlVrw5-6" parent="1" source="Yzbirrzvl_FB1wXZXd8P-32">
          <mxGeometry relative="1" as="geometry">
            <mxPoint x="1730" y="1840" as="sourcePoint"/>
          </mxGeometry>
        </mxCell>
        <mxCell id="s5eANWY_aAkniIFlVrw5-6" value="" style="ellipse;whiteSpace=wrap;html=1;fontFamily=Helvetica;fontSize=12;fontColor=#000000;align=center;strokeColor=#000000;fillColor=#ffffff;points=[];aspect=fixed;resizable=0;" vertex="1" parent="1">
          <mxGeometry x="1705" y="1835" width="10" height="10" as="geometry"/>
        </mxCell>
        <mxCell id="s5eANWY_aAkniIFlVrw5-7" value="" style="rounded=0;orthogonalLoop=1;jettySize=auto;html=1;endArrow=none;endFill=0;exitX=0.5;exitY=0;exitDx=0;exitDy=0;" edge="1" target="s5eANWY_aAkniIFlVrw5-9" parent="1" source="Yzbirrzvl_FB1wXZXd8P-12">
          <mxGeometry relative="1" as="geometry">
            <mxPoint x="1965" y="1840" as="sourcePoint"/>
          </mxGeometry>
        </mxCell>
        <mxCell id="s5eANWY_aAkniIFlVrw5-8" value="" style="rounded=0;orthogonalLoop=1;jettySize=auto;html=1;endArrow=halfCircle;endFill=0;entryX=0.5;entryY=0.5;entryDx=0;entryDy=0;endSize=6;strokeWidth=1;exitX=0.5;exitY=1;exitDx=0;exitDy=0;" edge="1" target="s5eANWY_aAkniIFlVrw5-9" parent="1" source="Yzbirrzvl_FB1wXZXd8P-39">
          <mxGeometry relative="1" as="geometry">
            <mxPoint x="2005" y="1840" as="sourcePoint"/>
          </mxGeometry>
        </mxCell>
        <mxCell id="s5eANWY_aAkniIFlVrw5-9" value="" style="ellipse;whiteSpace=wrap;html=1;fontFamily=Helvetica;fontSize=12;fontColor=#000000;align=center;strokeColor=#000000;fillColor=#ffffff;points=[];aspect=fixed;resizable=0;" vertex="1" parent="1">
          <mxGeometry x="1980" y="1835" width="10" height="10" as="geometry"/>
        </mxCell>
        <mxCell id="s5eANWY_aAkniIFlVrw5-10" value="" style="rounded=0;orthogonalLoop=1;jettySize=auto;html=1;endArrow=none;endFill=0;exitX=0.5;exitY=0;exitDx=0;exitDy=0;" edge="1" target="s5eANWY_aAkniIFlVrw5-12" parent="1" source="Yzbirrzvl_FB1wXZXd8P-134">
          <mxGeometry relative="1" as="geometry">
            <mxPoint x="485" y="1800" as="sourcePoint"/>
          </mxGeometry>
        </mxCell>
        <mxCell id="s5eANWY_aAkniIFlVrw5-11" value="" style="rounded=0;orthogonalLoop=1;jettySize=auto;html=1;endArrow=halfCircle;endFill=0;entryX=0.5;entryY=0.5;entryDx=0;entryDy=0;endSize=6;strokeWidth=1;exitX=0.5;exitY=1;exitDx=0;exitDy=0;" edge="1" target="s5eANWY_aAkniIFlVrw5-12" parent="1" source="Yzbirrzvl_FB1wXZXd8P-121">
          <mxGeometry relative="1" as="geometry">
            <mxPoint x="525" y="1800" as="sourcePoint"/>
          </mxGeometry>
        </mxCell>
        <mxCell id="s5eANWY_aAkniIFlVrw5-12" value="" style="ellipse;whiteSpace=wrap;html=1;fontFamily=Helvetica;fontSize=12;fontColor=#000000;align=center;strokeColor=#000000;fillColor=#ffffff;points=[];aspect=fixed;resizable=0;" vertex="1" parent="1">
          <mxGeometry x="500" y="1805" width="10" height="10" as="geometry"/>
        </mxCell>
        <mxCell id="s5eANWY_aAkniIFlVrw5-15" value="" style="rounded=0;orthogonalLoop=1;jettySize=auto;html=1;endArrow=none;endFill=0;exitX=0.5;exitY=1;exitDx=0;exitDy=0;" edge="1" target="s5eANWY_aAkniIFlVrw5-17" parent="1" source="Yzbirrzvl_FB1wXZXd8P-121">
          <mxGeometry relative="1" as="geometry">
            <mxPoint x="590" y="1834" as="sourcePoint"/>
          </mxGeometry>
        </mxCell>
        <mxCell id="s5eANWY_aAkniIFlVrw5-16" value="" style="rounded=0;orthogonalLoop=1;jettySize=auto;html=1;endArrow=halfCircle;endFill=0;entryX=0.5;entryY=0.5;entryDx=0;entryDy=0;endSize=6;strokeWidth=1;exitX=0.5;exitY=0;exitDx=0;exitDy=0;" edge="1" target="s5eANWY_aAkniIFlVrw5-17" parent="1" source="Yzbirrzvl_FB1wXZXd8P-12">
          <mxGeometry relative="1" as="geometry">
            <mxPoint x="1720" y="2040" as="sourcePoint"/>
          </mxGeometry>
        </mxCell>
        <mxCell id="s5eANWY_aAkniIFlVrw5-17" value="" style="ellipse;whiteSpace=wrap;html=1;fontFamily=Helvetica;fontSize=12;fontColor=#000000;align=center;strokeColor=#000000;fillColor=#ffffff;points=[];aspect=fixed;resizable=0;" vertex="1" parent="1">
          <mxGeometry x="605" y="1829" width="10" height="10" as="geometry"/>
        </mxCell>
        <mxCell id="s5eANWY_aAkniIFlVrw5-18" value="" style="rounded=0;orthogonalLoop=1;jettySize=auto;html=1;endArrow=none;endFill=0;exitX=0.5;exitY=0;exitDx=0;exitDy=0;" edge="1" target="s5eANWY_aAkniIFlVrw5-20" parent="1" source="Yzbirrzvl_FB1wXZXd8P-12">
          <mxGeometry relative="1" as="geometry">
            <mxPoint x="1240" y="2010" as="sourcePoint"/>
          </mxGeometry>
        </mxCell>
        <mxCell id="s5eANWY_aAkniIFlVrw5-19" value="" style="rounded=0;orthogonalLoop=1;jettySize=auto;html=1;endArrow=halfCircle;endFill=0;entryX=0.5;entryY=0.5;entryDx=0;entryDy=0;endSize=6;strokeWidth=1;exitX=0.5;exitY=1;exitDx=0;exitDy=0;" edge="1" target="s5eANWY_aAkniIFlVrw5-20" parent="1" source="Yzbirrzvl_FB1wXZXd8P-119">
          <mxGeometry relative="1" as="geometry">
            <mxPoint x="467" y="1835" as="sourcePoint"/>
          </mxGeometry>
        </mxCell>
        <mxCell id="s5eANWY_aAkniIFlVrw5-20" value="" style="ellipse;whiteSpace=wrap;html=1;fontFamily=Helvetica;fontSize=12;fontColor=#000000;align=center;strokeColor=#000000;fillColor=#ffffff;points=[];aspect=fixed;resizable=0;" vertex="1" parent="1">
          <mxGeometry x="442" y="1830" width="10" height="10" as="geometry"/>
        </mxCell>
        <mxCell id="s5eANWY_aAkniIFlVrw5-21" value="获取资源依赖" style="text;html=1;strokeColor=none;fillColor=none;align=center;verticalAlign=middle;whiteSpace=wrap;rounded=0;" vertex="1" parent="1">
          <mxGeometry x="300" y="1785" width="40" height="20" as="geometry"/>
        </mxCell>
      </root>
    </mxGraphModel>
  </diagram>
</mxfile>
